<svg version="1.1"
	xmlns="http://www.w3.org/2000/svg" x="0" y="0" viewBox="0 0 425.2 425.2" xml:space="preserve">
	<path fill="#0d111b" d="M191.2 292c-1 0-1.8-.3-2.6-.9-2.1-2.7-.6-6.3 4.6-11.2 3.1-2.9 4-3.6 7.4-6.3l4.7-3.8 11.4-9.4.2-.2-.2-.2c-.3-.5-.9-1.9-1-2.9-.4-2.9 1.1-6.7 4-10.1 3.3-3.8 7.5-6.1 11.2-6.1 1.1 0 2.2.2 3.1.6 1 .4 1.9 1 2.6 1.6.7.7 1.2 1.6 1.6 2.6 1.2 3.1.5 6.7-1.9 10.3-3.1 4.6-8.6 8.1-12.7 8.1l-1-.1a7 7 0 0 1-2.9-1l-.2-.2-.2.2-9.4 11.4-3.8 4.7c-2.7 3.4-3.5 4.3-6.3 7.4-3.4 3.7-6.2 5.5-8.6 5.5zm15.2 16a2 2 0 0 1-1.5-.6c-2.3-2.4 2.7-7.7 4.6-9.7l.4-.5c3.6-3.9 6.7-6.6 10.7-10.1 9.1-8 16.2-16.9 23.8-26.3l3.8-4.7h.3l.6.2c4.4 4 1.3 10.9-1.5 15.7a95.7 95.7 0 0 1-13.2 17.5l-.2.1h-.3l-.1.1-.3-.1c-1.4-.7-2.8-1.6-4.3-2.9l-.2-.2-.2.2c-2.6 2.7-4.6 5.3-6.6 7.9a77.8 77.8 0 0 1-7.3 8.6c-1.7 1.5-5.8 4.8-8.5 4.8zm-33.1-33.5a3 3 0 0 1-1.9-.6c-1.7-2.3.1-5.9 5.2-10.8 3.1-2.9 4-3.7 7.3-6.4l4.9-4.2a918 918 0 0 1 10.7-9.4l.2-.2-.2-.2-.9-1.8c-1-3.3 1-6.3 3-8.9 2.2-2.9 5-5.2 7.7-7.4l2-1.7.9-.8 1.5-1.1 1.8 1.8-1.4 1.4a47 47 0 0 0-8.3 9.2c-.1.3 0 .6.2.9.2.3.5.4.9.4l.3-.1c.9-.3 4.4-3.6 8.3-7.3l2.3-2.2.6.6.6.6.6.6-2.2 2.3c-3.7 3.9-7 7.5-7.3 8.4-.1.3-.1.7.2 1 .2.3.6.5.9.5h.2-.1c.8-.1 3.2-2.3 9.2-8.4l1.4-1.4 1.8 1.8-1.1 1.5-.8.9-1.7 2a45 45 0 0 1-7.4 7.7c-2.2 1.7-4.6 3.2-7.1 3.2l-1.8-.3a15 15 0 0 1-1.8-.9l-.2-.2-.2.2-9.4 10.8-4.2 4.9c-2.7 3.3-3.5 4.3-6.4 7.3-3.2 4.4-6.1 6.3-8.3 6.3zm9.2 68c-3.5 0-7.3-4.1-8.6-5.5-2.9-3.1-3.6-4-6.3-7.4l-3.8-4.7-9.4-11.4-.2-.2-.2.2c-.5.3-1.9.9-2.9 1l-1 .1c-4.1 0-9.6-3.5-12.7-8.1-2.4-3.6-3.1-7.3-1.9-10.3.4-1 1-1.9 1.6-2.6.7-.7 1.6-1.2 2.6-1.6 1-.4 2-.6 3.1-.6 3.7 0 7.9 2.3 11.2 6.1 2.9 3.4 4.4 7.2 4 10.1a7 7 0 0 1-1 2.9l-.2.2.2.2 11.4 9.4 4.7 3.8c3.4 2.7 4.3 3.5 7.4 6.3 5.2 4.8 6.7 8.5 4.5 11.2-.6.6-1.5.9-2.5.9zm17.4-16.6c-2.7 0-6.5-3.7-8.2-5.2l-.5-.4c-3.9-3.6-6.6-6.7-10.1-10.7-8-9.1-16.9-16.2-26.3-23.8l-4.7-3.8v-.1c-.1-.1-.1-.5.2-.8a6.6 6.6 0 0 1 5.2-2.2c3.6 0 7.7 2.1 10.5 3.7a95.7 95.7 0 0 1 17.5 13.2c.1.1.1.3 0 .4v.1l.1.1-.1.4c-.7 1.4-1.6 2.8-2.9 4.3l-.2.2.2.2c2.7 2.6 5.3 4.6 7.9 6.6 2.8 2.1 5.7 4.4 8.6 7.3 1.8 1.8 5.1 5.8 5.1 8.5a2 2 0 0 1-.6 1.5c-.6.3-1.1.5-1.7.5zm-33.8 33.6c-2.2 0-5.1-1.9-8.9-5.9-2.9-3-3.7-4-6.4-7.3l-4.2-4.9-9.4-10.8-.2-.2-.2.2-1.8.9-1.8.3c-2.5 0-4.9-1.5-7.1-3.2-2.9-2.2-5.2-5-7.4-7.7l-1.7-2.1-.8-.9-1.1-1.5 1.8-1.8 1.4 1.4c6.2 6.2 8.6 8.4 9.2 8.4h.2c.4 0 .7-.2.9-.5.2-.3.3-.6.1-1-.3-.9-3.6-4.4-7.2-8.3l-2.2-2.3.6-.6.6-.6.6-.6 2.3 2.2a79 79 0 0 0 8.3 7.2l.3.1c.3 0 .7-.2.9-.4.2-.3.3-.6.2-.9-.1-.7-2.3-3.1-8.3-9.2l-1.4-1.4 1.8-1.8 1.5 1.1.9.8 2 1.7a45 45 0 0 1 7.7 7.4c1.9 2.6 3.9 5.6 3 8.9a15 15 0 0 1-.9 1.8l-.2.2.2.2c6.2 5.3 8.8 7.6 10.7 9.4l4.9 4.2c3.3 2.7 4.3 3.5 7.3 6.4 5.1 4.9 6.9 8.5 5.2 10.8-.1.1-.7.3-1.4.3zM85 398.2c-1 0-1.8-.3-2.6-.9-2.1-2.7-.6-6.3 4.6-11.2 3.1-2.9 4-3.6 7.4-6.3l4.7-3.8 11.4-9.4.2-.2-.2-.2a7 7 0 0 1-1-2.9c-.4-2.9 1.1-6.7 4-10.1 3.3-3.8 7.5-6.1 11.2-6.1 1.1 0 2.2.2 3.1.6 1 .4 1.9 1 2.6 1.6.7.7 1.2 1.6 1.6 2.6 1.2 3.1.5 6.7-1.9 10.3-3.1 4.6-8.6 8.1-12.7 8.1l-1-.1a7 7 0 0 1-2.9-1l-.2-.2-.2.2-9.4 11.4-3.8 4.7c-2.7 3.4-3.5 4.3-6.3 7.4-3.5 3.7-6.3 5.5-8.6 5.5zm15.2 15.9a2 2 0 0 1-1.5-.6c-2.3-2.4 2.7-7.7 4.6-9.7l.4-.5c3.6-3.9 6.7-6.6 10.7-10.1 9.1-8 16.2-16.9 23.8-26.3l3.8-4.7h.3l.6.2c4.4 4 1.3 10.9-1.5 15.7a99.6 99.6 0 0 1-13.1 17.5l-.2.1h-.3l-.1.1-.3-.1c-1.4-.7-2.8-1.6-4.3-2.9l-.2-.2-.2.2c-2.6 2.7-4.6 5.3-6.6 7.9a77.8 77.8 0 0 1-7.3 8.6c-1.9 1.5-6 4.8-8.6 4.8zM67 380.7a3 3 0 0 1-1.9-.6c-1.7-2.3.1-5.9 5.2-10.8 3.1-2.9 4-3.7 7.3-6.4l4.9-4.2a918 918 0 0 1 10.7-9.4l.2-.2-.2-.2-.9-1.8c-1-3.3 1-6.3 3-8.9 2.2-2.9 5-5.2 7.7-7.4l2-1.7.9-.8 1.5-1.1 1.8 1.8-1.4 1.4a47 47 0 0 0-8.3 9.2c-.1.3 0 .6.2.9.2.3.5.4.9.4l.3-.1c.9-.3 4.4-3.6 8.3-7.3l2.3-2.2.6.6.6.6.6.6-2.2 2.3c-3.7 3.9-7 7.5-7.3 8.4-.1.3-.1.7.1 1 .2.3.6.5.9.5h.2-.1c.8-.1 3.2-2.3 9.2-8.4l1.4-1.4 1.8 1.8-1.1 1.5-.8.9-1.7 2a45 45 0 0 1-7.4 7.7c-2.2 1.7-4.6 3.2-7.1 3.2l-1.8-.3a15 15 0 0 1-1.8-.9l-.2-.2-.2.2-9.4 10.8-4.2 4.9c-2.7 3.3-3.5 4.3-6.4 7.3-3 4.4-5.9 6.3-8.2 6.3zm221.8-38.2c-3.5 0-7.3-4.1-8.6-5.5-2.9-3.1-3.6-4-6.3-7.4l-3.8-4.7-9.4-11.4-.2-.2-.2.2c-.5.3-1.9.9-2.9 1l-1 .1c-4.1 0-9.6-3.5-12.7-8.1-2.4-3.6-3.1-7.3-1.9-10.3.4-1 1-1.9 1.6-2.6a8.5 8.5 0 0 1 5.7-2.2c3.7 0 7.9 2.3 11.2 6.1 2.9 3.4 4.4 7.2 4 10.1a7 7 0 0 1-1 2.9l-.2.2.2.2 11.4 9.4 4.7 3.8c3.4 2.7 4.3 3.5 7.4 6.3 5.2 4.8 6.7 8.5 4.5 11.2-.7.6-1.6.9-2.5.9zm17.3-16.6c-2.7 0-6.5-3.7-8.2-5.2l-.5-.4c-3.9-3.6-6.6-6.7-10.1-10.7-8-9.1-16.9-16.2-26.3-23.8l-4.7-3.8v-.1c-.1-.1-.1-.5.2-.8a6.6 6.6 0 0 1 5.2-2.2c3.6 0 7.7 2.1 10.5 3.7a95.7 95.7 0 0 1 17.5 13.2c.1.1.1.3 0 .4v.1l.1.1-.1.4c-.7 1.4-1.6 2.8-2.9 4.3l-.2.2.2.2c2.7 2.6 5.3 4.6 7.9 6.6 2.8 2.1 5.7 4.4 8.6 7.3 1.8 1.8 5.1 5.8 5.1 8.5a2 2 0 0 1-.6 1.5c-.6.3-1 .5-1.7.5zm-33.8 33.6c-2.2 0-5.1-1.9-8.9-5.9-2.9-3-3.7-4-6.4-7.3l-4.2-4.9-9.4-10.8-.2-.2-.2.2-1.8.9-1.8.3c-2.5 0-4.9-1.5-7.1-3.2-2.9-2.2-5.2-5-7.4-7.7l-1.7-2.1-.8-.9-1.1-1.5 1.8-1.8 1.4 1.4c6.2 6.2 8.6 8.4 9.2 8.4h.2c.4 0 .7-.2.9-.5.2-.3.3-.6.2-1-.3-.9-3.6-4.4-7.2-8.3l-2.2-2.3.6-.6.6-.6.6-.6 2.3 2.2a79 79 0 0 0 8.3 7.2l.3.1c.3 0 .7-.2.9-.4.2-.3.3-.6.2-.9-.1-.7-2.3-3.1-8.3-9.2l-1.4-1.4 1.8-1.8 1.5 1.1.9.8 2 1.7a45 45 0 0 1 7.7 7.4c1.9 2.6 3.9 5.6 3 8.9a15 15 0 0 1-.9 1.8l-.2.2.2.2c6.2 5.3 8.8 7.6 10.7 9.4l4.9 4.2c3.3 2.7 4.3 3.5 7.3 6.4 5.1 4.9 6.9 8.5 5.2 10.8-.1.1-.8.3-1.5.3zm-81.1 38.7c-1 0-1.8-.3-2.6-.9-2.1-2.7-.6-6.3 4.6-11.2 3.1-2.9 4-3.6 7.4-6.3l4.7-3.8 11.4-9.4.2-.2-.2-.2c-.3-.5-.9-1.9-1-2.9-.4-2.9 1.1-6.7 4-10.1 3.3-3.8 7.5-6.1 11.2-6.1 1.1 0 2.2.2 3.1.6 1 .4 1.9 1 2.6 1.6.7.7 1.2 1.6 1.6 2.6 1.2 3.1.5 6.7-1.9 10.3-3.1 4.6-8.6 8.1-12.7 8.1l-1-.1a7 7 0 0 1-2.9-1l-.2-.2-.2.2-9.4 11.4-3.8 4.7c-2.7 3.4-3.5 4.3-6.3 7.4-3.4 3.7-6.2 5.5-8.6 5.5zm15.2 15.9a2 2 0 0 1-1.5-.6c-2.3-2.4 2.7-7.7 4.6-9.7l.4-.5c3.6-3.9 6.7-6.6 10.7-10.1 9.1-8 16.2-16.9 23.8-26.3l3.8-4.7h.3l.6.2c4.4 4 1.3 10.9-1.5 15.7a95.7 95.7 0 0 1-13.2 17.5l-.2.1h-.3l-.1.1-.3-.1c-1.4-.7-2.8-1.6-4.3-2.9l-.2-.2-.2.2c-2.6 2.7-4.6 5.3-6.6 7.9a77.8 77.8 0 0 1-7.3 8.6c-1.7 1.5-5.8 4.8-8.5 4.8zm-33.1-33.4a3 3 0 0 1-1.9-.6c-1.7-2.3.1-5.9 5.2-10.8 3.1-2.9 4-3.7 7.3-6.4l4.9-4.2a918 918 0 0 1 10.7-9.4l.2-.2-.2-.2-.9-1.8c-1-3.3 1-6.3 3-8.9 2.2-2.9 5-5.2 7.7-7.4l2-1.7.9-.8 1.5-1.1 1.8 1.8-1.4 1.4a47 47 0 0 0-8.3 9.2c-.1.3 0 .6.2.9.2.3.5.4.9.4l.3-.1c.9-.3 4.4-3.6 8.3-7.3l2.3-2.2.6.6.6.6.6.6-2.2 2.3c-3.7 3.9-7 7.5-7.3 8.4-.1.3-.1.7.2 1 .2.3.6.5.9.5h.2-.1c.8-.1 3.2-2.3 9.2-8.4l1.4-1.4 1.8 1.8-1.1 1.5-.8.9-1.7 2a45 45 0 0 1-7.4 7.7c-2.2 1.7-4.6 3.2-7.1 3.2l-1.8-.3a15 15 0 0 1-1.8-.9l-.2-.2-.2.2-9.4 10.8-4.2 4.9c-2.7 3.3-3.5 4.3-6.4 7.3-3.2 4.4-6.1 6.3-8.3 6.3zm124.2 17.5c-1 0-1.8-.3-2.6-.9-2.1-2.7-.6-6.3 4.6-11.2 3.1-2.9 4-3.6 7.4-6.3l4.7-3.8 11.4-9.4.2-.2-.2-.4c-.3-.5-.9-1.9-1-2.9-.4-2.9 1.1-6.7 4-10.1 3.3-3.8 7.5-6.1 11.2-6.1a8.7 8.7 0 0 1 5.8 2.2c.7.7 1.2 1.6 1.6 2.6 1.2 3.1.5 6.7-1.9 10.3-3.1 4.6-8.6 8.1-12.7 8.1l-1-.1a7 7 0 0 1-2.9-1l-.2-.2-.2.2-9.4 11.4-3.8 4.7c-2.7 3.4-3.5 4.3-6.3 7.4-3.5 3.9-6.3 5.7-8.7 5.7zm15.2 15.9a2 2 0 0 1-1.5-.6c-2.3-2.4 2.7-7.7 4.6-9.7l.4-.5c3.6-3.9 6.7-6.6 10.7-10.1 9.1-8 16.2-16.9 23.8-26.3l3.8-4.7h.3l.6.2c4.4 4 1.3 10.9-1.5 15.7a99.6 99.6 0 0 1-13.1 17.5l-.2.1h-.3l-.1.1-.3-.1c-1.4-.7-2.8-1.6-4.3-2.9l-.2-.2-.2.2c-2.6 2.7-4.6 5.3-6.6 7.9a77.8 77.8 0 0 1-7.3 8.6c-1.9 1.5-5.9 4.8-8.6 4.8zm-33.1-33.4a3 3 0 0 1-1.9-.6c-1.7-2.3.1-5.9 5.2-10.8 3.1-2.9 4-3.7 7.3-6.4l4.9-4.2a918 918 0 0 1 10.7-9.4l.2-.2-.2-.2-.9-1.8c-1-3.3 1-6.3 2.9-8.9 2.2-2.9 5-5.2 7.7-7.4l2-1.7.9-.8 1.5-1.1 1.8 1.8-1.4 1.4a47 47 0 0 0-8.3 9.2c-.1.3 0 .6.2.9.2.3.5.4.9.4l.3-.1c.9-.3 4.4-3.6 8.3-7.3l2.3-2.2.6.6.6.6.6.6-2.2 2.3c-3.7 3.9-7 7.5-7.3 8.4-.1.3-.1.7.2 1 .2.3.6.5.9.5h.2c.8-.1 3.2-2.3 9.2-8.4l1.4-1.4 1.8 1.8-1.1 1.5-.8.9-1.7 2a45 45 0 0 1-7.4 7.7c-2.2 1.7-4.6 3.2-7.1 3.2l-1.8-.3a15 15 0 0 1-1.8-.9l-.2-.2-.2.2-9.4 10.8-4.2 4.9c-2.7 3.3-3.5 4.3-6.4 7.3-3.2 4.4-6.1 6.3-8.3 6.3zM74.3 11.4c-3.1-2.9-4-3.6-7.4-6.3l-4.7-3.8A13 13 0 0 1 60.8.1h-8.2L57.5 6l3.8 4.7C64 14 64.8 15 67.6 18c1.3 1.4 5.1 5.5 8.6 5.5 1 0 1.8-.3 2.6-.9 2.2-2.7.7-6.4-4.5-11.2zM50.8 417l-.2-.2.2-.2a7 7 0 0 0 1-2.9c.4-2.9-1.1-6.7-4-10.1-3.3-3.8-7.5-6.1-11.2-6.1-1.1 0-2.2.2-3.1.6-1 .4-1.9 1-2.6 1.6-.7.7-1.2 1.6-1.6 2.6-1.2 3.1-.5 6.7 1.9 10.3 3.1 4.6 8.6 8.1 12.7 8.1l1-.1a7 7 0 0 0 2.9-1l.2-.2.2.2 4.5 5.5h8.2L50.8 417zm39.9 4.5c-2.9-3-5.8-5.2-8.6-7.3-2.5-1.9-5.2-4-7.9-6.6l-.2-.2.2-.2c1.3-1.4 2.3-2.8 2.9-4.3l.1-.4-.1-.1v-.5a96.8 96.8 0 0 0-17.5-13.2 23.2 23.2 0 0 0-10.5-3.7c-2.1 0-3.9.7-5.2 2.2-.2.3-.3.6-.2.8v.1l4.7 3.8c9.4 7.5 18.3 14.6 26.3 23.8 3.1 3.5 5.6 6.3 8.8 9.5h10.1c-.9-1.5-2.1-2.9-2.9-3.7zM83.7 0 85 1.2l.5.4c1.6 1.6 5.5 5.2 8.2 5.2a2 2 0 0 0 2.1-2.1c0-1.4-.9-3.1-2-4.8H83.7zM12 422l-1.4-1.4-1.8 1.8 1.1 1.5.8.9.2.3h4.3L12 422zm5.3-3.4-2.3-2.2-.6.6-.6.6-.6.6 2.2 2.3 4.3 4.6h5.1a74 74 0 0 1-7.5-6.5zM56.5 29c-3.1-2.9-4-3.7-7.3-6.4l-4.9-4.2A918 918 0 0 0 33.6 9l-.2-.2.2-.2.9-1.8c.7-2.5-.2-4.8-1.5-6.9h-6l-.1.2c-.2.3-.5.4-.9.4l-.3-.1-1-.6h-5.1c1.6 1.8 2.8 3.2 3 3.7.1.3.1.7-.1 1-.2.3-.6.5-.9.5h-.2c-.5 0-2.2-1.4-6-5.2H11l1.4 1.7a45 45 0 0 0 7.4 7.7c2.2 1.7 4.6 3.2 7.1 3.2l1.8-.3a15 15 0 0 0 1.8-.9l.2-.2.2.2L40.3 22l4.2 4.9c2.8 3.4 3.5 4.3 6.4 7.3 3.7 3.9 6.6 5.9 8.9 5.9a3 3 0 0 0 1.9-.6c1.7-2-.1-5.6-5.2-10.5zM31.4 423.2c-2.2-2.9-5-5.2-7.7-7.4l-2-1.7-.9-.8-1.5-1.1-1.8 1.8 1.4 1.4c6 6 8.2 8.4 8.3 9.2l-.1.7h5.8a19 19 0 0 0-1.5-2.1zm125.7-6.2-.2-.2.2-.2c.3-.5.9-1.9 1-2.9.4-2.9-1.1-6.7-4-10.1-3.3-3.8-7.5-6.1-11.2-6.1-1.1 0-2.2.2-3.1.6-1 .4-1.9 1-2.6 1.6-.7.7-1.2 1.6-1.6 2.6-1.2 3.1-.5 6.7 1.9 10.3 3.1 4.6 8.6 8.1 12.7 8.1l1-.1a7 7 0 0 0 2.9-1l.2-.2.2.2 4.5 5.5h8.2c-1.9-1.4-4.8-3.7-10.1-8.1zm23.5-405.6c-3.1-2.9-4-3.6-7.4-6.3l-4.7-3.8a13 13 0 0 1-1.4-1.2h-8.2l4.9 5.9 3.8 4.7c2.7 3.4 3.5 4.3 6.3 7.4 1.3 1.4 5.1 5.5 8.6 5.5 1 0 1.8-.3 2.6-.9 2.1-2.8.7-6.5-4.5-11.3zm16.3 410.1c-2.9-3-5.8-5.2-8.6-7.3-2.5-1.9-5.2-4-7.9-6.6l-.2-.2.2-.2c1.3-1.4 2.3-2.8 2.9-4.3l.1-.4-.1-.1v-.5a96.8 96.8 0 0 0-17.5-13.2 23.2 23.2 0 0 0-10.5-3.7c-2.1 0-3.9.7-5.2 2.2-.2.3-.3.6-.2.8v.1l4.7 3.8c9.4 7.5 18.3 14.6 26.3 23.8 3.1 3.5 5.6 6.3 8.8 9.5H200c-1-1.5-2.2-2.9-3.1-3.7zM190 0l1.3 1.2.5.4c1.6 1.6 5.5 5.2 8.2 5.2a2 2 0 0 0 2.1-2.1c0-1.4-.9-3.1-2-4.8H190zm-27.3 29c-3.1-2.9-4-3.7-7.3-6.4l-4.9-4.2A918 918 0 0 0 139.8 9l-.2-.2.2-.2.9-1.8c.7-2.5-.2-4.8-1.5-6.9h-5.8l-.1.2c-.2.3-.5.4-.9.4l-.3-.1-1-.6H126c1.6 1.8 2.8 3.2 3 3.7.1.3.1.7-.1 1-.2.3-.6.5-.9.5h-.2c-.5 0-2.2-1.4-6-5.2h-4.3l1.4 1.7a45 45 0 0 0 7.4 7.7c2.2 1.7 4.6 3.2 7.1 3.2l1.8-.3a15 15 0 0 0 1.8-.9l.2-.2.2.2 9.4 10.8 4.2 4.9c2.8 3.4 3.5 4.3 6.4 7.3 3.7 3.9 6.6 5.8 8.9 5.9a3 3 0 0 0 1.9-.6c1.4-2-.3-5.6-5.5-10.5zm-39.1 389.6-2.3-2.2-.6.6-.6.6-.6.6 2.2 2.3 4.3 4.6h5.1a74 74 0 0 1-7.5-6.5zm-5.3 3.4-1.4-1.4-1.8 1.8 1.1 1.5.8.9.2.3h4.3l-3.2-3.1zm19.4 1.2c-2.2-2.9-5-5.2-7.7-7.4l-2-1.7-.9-.8-1.5-1.1-1.8 1.8 1.4 1.4c6 6 8.2 8.4 8.3 9.2l-.1.7h5.8l-1.5-2.1zM85 79.1c-1 0-1.8-.3-2.6-.9-2.1-2.7-.6-6.3 4.6-11.2 3.1-2.9 4-3.6 7.4-6.3l4.7-3.8 11.4-9.4.2-.2-.2-.2a7 7 0 0 1-1-2.9c-.4-2.9 1.1-6.7 4-10.1 3.3-3.8 7.5-6.1 11.2-6.1 1.1 0 2.2.2 3.1.6 1 .4 1.9 1 2.6 1.6.7.7 1.2 1.6 1.6 2.6 1.2 3.1.5 6.7-1.9 10.3-3.1 4.6-8.6 8.1-12.7 8.1l-1-.1a7 7 0 0 1-2.9-1l-.2-.2-.2.2-9.4 11.4-3.8 4.7c-2.7 3.4-3.5 4.3-6.3 7.4-3.5 3.7-6.3 5.5-8.6 5.5zm15.2 16a2 2 0 0 1-1.5-.6c-2.3-2.4 2.7-7.7 4.6-9.7l.4-.5c3.6-3.9 6.7-6.6 10.7-10.1 9.1-8 16.2-16.9 23.8-26.3l3.8-4.7h.3l.6.2c4.4 4 1.3 10.9-1.5 15.7a99.6 99.6 0 0 1-13.1 17.5l-.2.1h-.3l-.1.1-.3-.1c-1.4-.7-2.8-1.6-4.3-2.9l-.2-.2-.2.2c-2.6 2.7-4.6 5.3-6.6 7.9a77.8 77.8 0 0 1-7.3 8.6c-1.9 1.5-6 4.8-8.6 4.8zM67 61.7a3 3 0 0 1-1.9-.6c-1.7-2.3.1-5.9 5.2-10.8 3.1-2.9 4-3.7 7.3-6.4l4.9-4.2a918 918 0 0 1 10.7-9.4l.2-.2-.1-.2-.9-1.8c-1-3.3 1-6.3 3-8.9 2.2-2.9 5-5.2 7.7-7.4l2-1.7.9-.8 1.5-1.1 1.8 1.8-1.4 1.4a47 47 0 0 0-8.3 9.2c-.1.3 0 .6.2.9.2.3.5.4.9.4l.3-.1c.9-.3 4.4-3.6 8.3-7.3l2.3-2.2.6.6.6.6.6.6-2.2 2.3c-3.7 3.9-7 7.5-7.3 8.4-.1.3-.1.7.1 1 .2.3.6.5.9.5h.2c.8-.1 3.2-2.3 9.2-8.4l1.4-1.4 1.8 1.8-1.1 1.5-.8.9-1.7 2a49.6 49.6 0 0 1-7.4 7.8c-2.2 1.7-4.6 3.2-7.1 3.2l-1.8-.3a15 15 0 0 1-1.8-.9l.2.1-.2.2-9.4 10.8-4.2 4.9c-2.7 3.3-3.5 4.3-6.4 7.3-3.6 4-6.5 5.9-8.8 5.9zM263.4 417l-.2-.2.2-.2c.3-.5.9-1.9 1-2.9.4-2.9-1.1-6.7-4-10.1-3.3-3.8-7.5-6.1-11.2-6.1-1.1 0-2.2.2-3.1.6-1 .4-1.9 1-2.6 1.6-.7.7-1.2 1.6-1.6 2.6-1.2 3.1-.5 6.7 1.9 10.3 3.1 4.6 8.6 8.1 12.7 8.1l1-.1a7 7 0 0 0 2.9-1l.2-.2.2.2 4.5 5.5h8.2c-2-1.4-4.8-3.7-10.1-8.1zm23.4-405.6c-3.1-2.9-4-3.6-7.4-6.3l-4.7-3.8a13 13 0 0 1-1.4-1.2h-8.2L270 6l3.8 4.7c2.7 3.4 3.5 4.3 6.3 7.4 1.3 1.4 5.1 5.5 8.6 5.5 1 0 1.8-.3 2.6-.9 2.2-2.8.7-6.5-4.5-11.3zm16.4 410.1c-2.9-3-5.8-5.2-8.6-7.3-2.5-1.9-5.2-4-7.9-6.6l-.2-.2.2-.2c1.3-1.4 2.3-2.8 2.9-4.3l.1-.4-.1-.1v-.5a96.8 96.8 0 0 0-17.5-13.2 23.2 23.2 0 0 0-10.5-3.7c-2.1 0-3.9.7-5.2 2.2-.2.3-.3.6-.2.8v.1l4.7 3.8c9.4 7.5 18.3 14.6 26.3 23.8 3.1 3.5 5.6 6.3 8.8 9.5h10.1a17 17 0 0 0-2.9-3.7zM296.2 0l1.3 1.2.5.4c1.6 1.6 5.5 5.2 8.2 5.2a2 2 0 0 0 2.1-2.1c0-1.4-.9-3.1-2-4.8h-10.1zm-66.4 418.6-2.3-2.2-.6.6-.6.6-.6.6 2.2 2.3 4.3 4.6h5.1c-1.6-1.1-4.4-3.7-7.5-6.5zm-5.2 3.4-1.4-1.4-1.8 1.8 1.1 1.5.8.9.2.3h4.3l-3.2-3.1zm19.3 1.2c-2.2-2.9-5-5.2-7.7-7.4l-2-1.7-.9-.8-1.5-1.1-1.8 1.8 1.4 1.4c6 6 8.2 8.4 8.3 9.2l-.1.7h5.8a19 19 0 0 0-1.5-2.1zM269 29c-3.1-2.9-4-3.7-7.3-6.4l-4.9-4.2A918 918 0 0 0 246.1 9l-.2-.2.2-.2.9-1.8c.7-2.5-.2-4.8-1.5-6.9h-5.8l-.1.2c-.2.3-.5.4-.9.4l-.3-.1-1-.6h-5.1c1.6 1.8 2.8 3.2 3 3.7.1.3.1.7-.2 1-.2.3-.6.5-.9.5h-.2c-.5 0-2.2-1.4-6-5.2h-4.3l1.4 1.7a45 45 0 0 0 7.4 7.7c2.2 1.7 4.6 3.2 7.1 3.2l1.8-.3a15 15 0 0 0 1.8-.9l.2-.2.2.2L253 22l4.2 4.9c2.8 3.4 3.5 4.3 6.4 7.3 3.7 3.9 6.6 5.8 8.9 5.9a3 3 0 0 0 1.9-.6c1.5-2-.2-5.6-5.4-10.5zm-77.8 50.1c-1 0-1.8-.3-2.6-.9-2.1-2.7-.6-6.3 4.6-11.2 3.1-2.9 4-3.6 7.4-6.3l4.7-3.8 11.4-9.4.2-.2-.2-.2c-.3-.5-.9-1.9-1-2.9-.4-2.9 1.1-6.7 4-10.1 3.3-3.8 7.5-6.1 11.2-6.1 1.1 0 2.2.2 3.1.6 1 .4 1.9 1 2.6 1.6.7.7 1.2 1.6 1.6 2.6 1.2 3.1.5 6.7-1.9 10.3-3.1 4.6-8.6 8.1-12.7 8.1l-1-.1a7 7 0 0 1-2.9-1l-.2-.2-.2.2-9.4 11.4-3.8 4.7c-2.7 3.4-3.5 4.3-6.3 7.4-3.4 3.7-6.2 5.5-8.6 5.5zm15.2 16a2 2 0 0 1-1.5-.6c-2.3-2.4 2.7-7.7 4.6-9.7l.4-.5c3.6-3.9 6.7-6.6 10.7-10.1 9.1-8 16.2-16.9 23.8-26.3l3.8-4.7h.3l.6.2c4.4 4 1.3 10.9-1.5 15.7a95.7 95.7 0 0 1-13.2 17.5l-.2.1h-.3l-.1.1-.3-.1c-1.4-.7-2.8-1.6-4.3-2.9l-.2-.2-.2.2c-2.6 2.7-4.6 5.3-6.6 7.9a77.8 77.8 0 0 1-7.3 8.6c-1.7 1.5-5.8 4.8-8.5 4.8zm-33.1-33.4a3 3 0 0 1-1.9-.6c-1.7-2.3.1-5.9 5.2-10.8 3.1-2.9 4-3.7 7.3-6.4l4.9-4.2a918 918 0 0 1 10.7-9.4l.2-.2-.2-.2-.9-1.8c-1-3.3 1-6.3 3-8.9 2.2-2.9 5-5.2 7.7-7.4l2-1.7.9-.8 1.5-1.1 1.8 1.8-1.4 1.4a55.8 55.8 0 0 0-8.4 9.2c-.1.3 0 .6.2.9.2.3.5.4.9.4l.3-.1c.9-.3 4.4-3.6 8.3-7.3l2.3-2.2.6.6.6.6.6.6-2.2 2.3c-3.7 3.9-7 7.5-7.3 8.4-.1.3-.1.7.2 1 .2.3.6.5.9.5h.2-.1c.8-.1 3.2-2.3 9.2-8.4l1.4-1.4 1.8 1.8-1.1 1.5-.8.9-1.7 2a49.6 49.6 0 0 1-7.4 7.8c-2.2 1.7-4.6 3.2-7.1 3.2l-1.8-.3a15 15 0 0 1-1.8-.9l-.2-.2-.2.2-9.4 10.8-4.2 4.9c-2.7 3.3-3.5 4.3-6.4 7.3-3.1 4.3-6 6.2-8.2 6.2zm219.8-50.3c-3.1-2.9-4-3.6-7.4-6.3L381 1.3a13 13 0 0 1-1.4-1.2h-8.2l4.9 5.9 3.8 4.7c2.7 3.4 3.5 4.3 6.3 7.4 1.3 1.4 5.1 5.5 8.6 5.5 1 0 1.8-.3 2.6-.9 2.2-2.8.7-6.5-4.5-11.3zM369.6 417l-.2-.2.2-.2c.3-.5.9-1.9 1-2.9.4-2.9-1.1-6.7-4-10.1-3.3-3.8-7.5-6.1-11.2-6.1-1.1 0-2.2.2-3.1.6-1 .4-1.9 1-2.6 1.6-.7.7-1.2 1.6-1.6 2.6-1.2 3.1-.5 6.7 1.9 10.3 3.1 4.6 8.6 8.1 12.7 8.1l1-.1a7 7 0 0 0 2.9-1l.2-.2.2.2 4.5 5.5h8.2l-10.1-8.1zm39.9 4.5c-2.9-3-5.8-5.2-8.6-7.3-2.5-1.9-5.2-4-7.9-6.6l-.2-.2.2-.2c1.3-1.4 2.3-2.8 2.9-4.3l.1-.4-.1-.1v-.5a96.8 96.8 0 0 0-17.5-13.2 23.2 23.2 0 0 0-10.5-3.7c-2.1 0-3.9.7-5.2 2.2-.2.3-.3.6-.2.8v.1l4.7 3.8c9.4 7.5 18.3 14.6 26.3 23.8 3.1 3.5 5.6 6.3 8.8 9.5h10.1c-.9-1.5-2.1-2.9-2.9-3.7zM402.5 0l1.3 1.2.5.4c1.6 1.6 5.5 5.2 8.2 5.2a2 2 0 0 0 2.1-2.1c0-1.4-.9-3.1-2-4.8h-10.1zm-66.4 418.6-2.3-2.2-.6.6-.6.6-.6.6 2.2 2.3 4.3 4.6h5.1a74 74 0 0 1-7.5-6.5zm-5.3 3.4-1.4-1.4-1.8 1.8 1.1 1.5.8.9.2.3h4.3l-3.2-3.1zm44.5-393c-3.1-2.9-4-3.7-7.3-6.4l-4.9-4.2A918 918 0 0 0 352.4 9l-.2-.2.2-.2.9-1.8c.7-2.5-.2-4.8-1.5-6.9H346l-.1.2c-.2.3-.5.4-.9.4l-.3-.1-1-.6h-5.1c1.6 1.8 2.8 3.2 3 3.7.1.3.1.7-.2 1-.2.3-.6.5-.9.5h-.2c-.5 0-2.2-1.4-6-5.2H330l1.4 1.7a45 45 0 0 0 7.4 7.7c2.2 1.7 4.6 3.2 7.1 3.2l1.8-.3a15 15 0 0 0 1.8-.9l.2-.2.2.2 9.4 10.8 4.2 4.9c2.8 3.4 3.5 4.3 6.4 7.3 3.7 3.9 6.6 5.8 8.9 5.9a3 3 0 0 0 1.9-.6c1.5-2-.3-5.6-5.4-10.5zm-25.1 394.2c-2.2-2.9-5-5.2-7.7-7.4l-2-1.7-.9-.8-1.5-1.1-1.8 1.8 1.4 1.4c6 6 8.2 8.4 8.3 9.2l-.1.7h5.8a19 19 0 0 0-1.5-2.1zM297.5 79.1c-1 0-1.8-.3-2.6-.9-2.1-2.7-.6-6.3 4.6-11.2 3.1-2.9 4-3.6 7.4-6.3l4.7-3.8 11.4-9.4.2-.2-.2-.3c-.3-.5-.9-1.9-1-2.9-.4-2.9 1.1-6.7 4-10.1 3.3-3.8 7.5-6.1 11.2-6.1 1.1 0 2.2.2 3.1.6 1 .4 1.9 1 2.6 1.6.7.7 1.2 1.6 1.6 2.6 1.2 3.1.5 6.7-1.9 10.3-3.1 4.6-8.6 8.1-12.7 8.1l-1-.1a7 7 0 0 1-2.9-1l-.2-.2-.2.2-9.4 11.4-3.8 4.7c-2.7 3.4-3.5 4.3-6.3 7.4-3.4 3.8-6.2 5.6-8.6 5.6zm15.2 16a2 2 0 0 1-1.5-.6c-2.3-2.4 2.7-7.7 4.6-9.7l.4-.5c3.6-3.9 6.7-6.6 10.7-10.1 9.1-8 16.2-16.9 23.8-26.3l3.8-4.7h.3l.6.2c4.4 4 1.3 10.9-1.5 15.7a99.6 99.6 0 0 1-13.1 17.5l-.2.1h-.3l-.1.1-.3-.1c-1.4-.7-2.8-1.6-4.3-2.9l-.2-.2-.2.2c-2.6 2.7-4.6 5.3-6.6 7.9a77.8 77.8 0 0 1-7.3 8.6c-1.9 1.5-5.9 4.8-8.6 4.8zm-33.1-33.4a3 3 0 0 1-1.9-.6c-1.7-2.3.1-5.9 5.2-10.8 3.1-2.9 4-3.7 7.3-6.4l4.9-4.2a918 918 0 0 1 10.7-9.4l.2-.2-.2-.2-.9-1.8c-1-3.3 1-6.3 2.9-8.9 2.2-2.9 5-5.2 7.7-7.4l2-1.7.9-.8 1.5-1.1 1.8 1.8-1.4 1.4a47 47 0 0 0-8.3 9.2c-.1.3 0 .6.2.9.2.3.5.4.9.4l.3-.1c.9-.3 4.4-3.6 8.3-7.3l2.3-2.2.6.6.6.6.6.6-2.2 2.3c-3.7 3.9-7 7.5-7.3 8.4-.1.3-.1.7.2 1 .2.3.6.5.9.5h.2c.8-.1 3.2-2.3 9.2-8.4l1.4-1.4 1.8 1.8-1.1 1.5-.8.9-1.7 2a49.6 49.6 0 0 1-7.4 7.8c-2.2 1.7-4.6 3.2-7.1 3.2l-1.8-.3a15 15 0 0 1-1.8-.9l-.2-.2-.2.2-9.4 10.8-4.2 4.9c-2.7 3.3-3.5 4.3-6.4 7.3-3.2 4.3-6.1 6.2-8.3 6.2zm-97.1 67.9c-3.5 0-7.3-4.1-8.6-5.5-2.9-3.1-3.6-4-6.3-7.4l-3.8-4.7-9.4-11.4-.2-.2-.2.2a7 7 0 0 1-2.9 1l-1 .1c-4.1 0-9.6-3.5-12.7-8.1-2.4-3.6-3.1-7.3-1.9-10.3.4-1 1-1.9 1.6-2.6.7-.7 1.6-1.2 2.6-1.6 1-.4 2-.6 3.1-.6 3.7 0 7.9 2.3 11.2 6.1 2.9 3.4 4.4 7.2 4 10.1a7 7 0 0 1-1 2.9l-.2.2.2.2 11.4 9.4 4.7 3.8c3.4 2.7 4.3 3.5 7.4 6.3 5.2 4.8 6.7 8.5 4.5 11.2-.6.6-1.5.9-2.5.9zm17.4-16.6c-2.7 0-6.5-3.7-8.2-5.2l-.5-.4c-3.9-3.6-6.6-6.7-10.1-10.7-8-9.1-16.9-16.2-26.3-23.8l-4.7-3.8V69c-.1-.1-.1-.5.2-.8a6.6 6.6 0 0 1 5.2-2.2c3.6 0 7.7 2.1 10.5 3.7a95.7 95.7 0 0 1 17.5 13.2c.1.1.1.3 0 .4v.1l.1.1-.1.4c-.7 1.4-1.6 2.8-2.9 4.3l-.2.2.2.2c2.7 2.6 5.3 4.6 7.9 6.6 2.8 2.1 5.7 4.4 8.6 7.3 1.8 1.8 5.1 5.8 5.1 8.5a2 2 0 0 1-.6 1.5c-.6.3-1.1.5-1.7.5zm-33.8 33.6c-2.2 0-5.1-1.9-8.9-5.9-2.9-3-3.7-4-6.4-7.3l-4.2-4.9-9.4-10.8-.2-.2-.2.2-1.8.9-1.8.3c-2.5 0-4.9-1.5-7.1-3.2-2.9-2.2-5.2-5-7.4-7.7l-1.7-2.1-.8-.9-1.1-1.5 1.8-1.8 1.4 1.4c6.2 6.2 8.6 8.4 9.2 8.4h.2c.4 0 .7-.2.9-.5.2-.3.3-.6.2-1-.3-.9-3.6-4.4-7.2-8.3l-2.2-2.3.6-.6.6-.6.6-.6 2.3 2.2a79 79 0 0 0 8.3 7.2l.3.1c.3 0 .7-.2.9-.4.2-.3.3-.6.2-.9-.1-.7-2.3-3.1-8.3-9.2l-1.4-1.4 1.8-1.8 1.5 1.1.9.8 2 1.7a45 45 0 0 1 7.7 7.4c2 2.6 3.9 5.6 3 8.9a15 15 0 0 1-.9 1.8l-.2.2.2.2c6.2 5.3 8.8 7.6 10.7 9.4l4.9 4.2c3.3 2.7 4.3 3.5 7.3 6.4 5.1 4.9 6.9 8.5 5.2 10.8-.2.1-.8.3-1.5.3zm122.7-17c-3.5 0-7.3-4.1-8.6-5.5-2.9-3.1-3.6-4-6.3-7.4l-3.8-4.7-9.4-11.4-.2-.2-.2.2a7 7 0 0 1-2.9 1l-1 .1c-4.1 0-9.6-3.5-12.7-8.1-2.4-3.6-3.1-7.3-1.9-10.3.4-1 1-1.9 1.6-2.6a8.5 8.5 0 0 1 5.7-2.2c3.7 0 7.9 2.3 11.2 6.1 2.9 3.4 4.4 7.2 4 10.1a7 7 0 0 1-1 2.9l-.2.2.2.2 11.4 9.4 4.7 3.8c3.4 2.7 4.3 3.5 7.4 6.3 5.2 4.8 6.7 8.5 4.5 11.2-.7.6-1.6.9-2.5.9zm17.3-16.6c-2.7 0-6.5-3.7-8.2-5.2l-.5-.4c-3.9-3.6-6.6-6.7-10.1-10.7-8-9.1-16.9-16.2-26.3-23.8l-4.7-3.8V69c-.1-.1-.1-.5.2-.8a6.6 6.6 0 0 1 5.2-2.2c3.6 0 7.7 2.1 10.5 3.7a95.7 95.7 0 0 1 17.5 13.2c.1.1.1.3 0 .4v.1l.1.1-.1.4c-.7 1.4-1.6 2.8-2.9 4.3l-.2.2.2.2c2.7 2.6 5.3 4.6 7.9 6.6 2.8 2.1 5.7 4.4 8.6 7.3 1.8 1.8 5.1 5.8 5.1 8.5a2 2 0 0 1-.6 1.5c-.6.3-1 .5-1.7.5zm-33.8 33.6c-2.2 0-5.1-1.9-8.9-5.9-2.9-3-3.7-4-6.4-7.3l-4.2-4.9-9.4-10.8-.2-.2-.2.2-1.8.9-1.8.3c-2.5 0-4.9-1.5-7.1-3.2-2.9-2.2-5.2-5-7.4-7.7l-1.7-2.1-.8-.9-1.1-1.5 1.8-1.8 1.4 1.4c6.2 6.2 8.6 8.4 9.2 8.4h.2c.4 0 .7-.2.9-.5.2-.3.3-.6.2-1-.3-.9-3.6-4.4-7.2-8.3l-2.2-2.3.6-.6.6-.6.6-.6 2.3 2.2a79 79 0 0 0 8.3 7.2l.3.1c.3 0 .7-.2.9-.4.2-.3.3-.6.2-.9-.1-.7-2.3-3.1-8.3-9.2l-1.4-1.4 1.8-1.8 1.5 1.1.9.8 2 1.7a45 45 0 0 1 7.7 7.4c1.9 2.6 3.9 5.6 3 8.9a15 15 0 0 1-.9 1.8l-.2.2.2.2c6.2 5.3 8.8 7.6 10.7 9.4l4.9 4.2c3.3 2.7 4.3 3.5 7.3 6.4 5.1 4.9 6.9 8.5 5.2 10.8-.1.1-.8.3-1.5.3zm-81.1 38.7c-1 0-1.8-.3-2.6-.9-2.1-2.7-.6-6.3 4.6-11.2 3.1-2.9 4-3.6 7.4-6.3l4.7-3.8 11.4-9.4.2-.2-.2-.2c-.3-.5-.9-1.9-1-2.9-.4-2.9 1.1-6.7 4-10.1 3.3-3.8 7.5-6.1 11.2-6.1 1.1 0 2.2.2 3.1.6 1 .4 1.9 1 2.6 1.6.7.7 1.2 1.6 1.6 2.6 1.2 3.1.5 6.7-1.9 10.3-3.1 4.6-8.6 8.1-12.7 8.1l-1-.1a7 7 0 0 1-2.9-1l-.2-.2-.2.2-9.4 11.4-3.8 4.7c-2.7 3.4-3.5 4.3-6.3 7.4-3.4 3.7-6.2 5.5-8.6 5.5zm15.2 15.9a2 2 0 0 1-1.5-.6c-2.3-2.4 2.7-7.7 4.6-9.7l.4-.5c3.6-3.9 6.7-6.6 10.7-10.1 9.1-8 16.2-16.9 23.8-26.3l3.8-4.7h.3l.6.2c4.4 4 1.3 10.9-1.5 15.7a95.7 95.7 0 0 1-13.2 17.5l-.2.1h-.3l-.1.1-.3-.1c-1.4-.7-2.8-1.6-4.3-2.9l-.2-.2-.2.2c-2.6 2.7-4.6 5.3-6.6 7.9a77.8 77.8 0 0 1-7.3 8.6c-1.7 1.5-5.8 4.8-8.5 4.8zm-33.1-33.4a3 3 0 0 1-1.9-.6c-1.7-2.3.1-5.9 5.2-10.8 3.1-2.9 4-3.7 7.3-6.4l4.9-4.2a918 918 0 0 1 10.7-9.4l.2-.2-.2-.2-.9-1.8c-1-3.3 1-6.3 3-8.9 2.2-2.9 5-5.2 7.7-7.4l2-1.7.9-.8 1.5-1.1 1.8 1.8-1.4 1.4c-6.1 6-8.2 8.5-8.3 9.2-.1.3 0 .6.2.9.2.3.5.4.9.4l.3-.1c.9-.3 4.4-3.6 8.3-7.3l2.3-2.2.6.6.6.6.6.6-2.2 2.3c-3.7 3.9-7 7.5-7.3 8.4-.1.3-.1.7.2 1 .2.3.6.5.9.5h.2-.1c.8-.1 3.2-2.3 9.2-8.4l1.4-1.4 1.8 1.8-1.1 1.5-.8.9-1.7 2a45 45 0 0 1-7.4 7.7c-2.2 1.7-4.6 3.2-7.1 3.2l-1.8-.3a15 15 0 0 1-1.8-.9l-.2-.2-.2.2-9.4 10.8-4.2 4.9c-2.7 3.3-3.5 4.3-6.4 7.3-3.2 4.4-6.1 6.3-8.3 6.3zM26.7 32.8c-.4-1-1-1.9-1.6-2.6a7.6 7.6 0 0 0-2.6-1.6c-1-.4-2-.6-3.1-.6-3.7 0-7.9 2.3-11.2 6.1-2.9 3.4-4.4 7.2-4 10.1a7 7 0 0 0 1 2.9l.2.2-.2.2-5.1 4.2v8l7.8-9.5.1-.3.2.2c.5.3 1.9.9 2.9 1l1 .1c4.1 0 9.6-3.5 12.7-8.1 2.5-3.6 3.1-7.3 1.9-10.3zm392.2 24-4.7 3.8c-3.4 2.7-4.3 3.5-7.4 6.3-5.2 4.8-6.7 8.5-4.6 11.2.8.6 1.7.9 2.6.9 2.4 0 5.2-1.8 8.6-5.5 2.9-3.1 3.6-4 6.3-7.4l3.8-4.7 1.6-1.9v-8l-6.2 5.3zM37.6 43.3l-.6-.2h-.3l-3.8 4.7c-7.5 9.4-14.6 18.3-23.8 26.3C5.7 77.2 3 79.6 0 82.7v10.2c1.4-1 2.6-2 3.4-2.8 3-2.9 5.2-5.8 7.3-8.6 1.9-2.5 4-5.2 6.6-7.9l.2-.2.2.2c1.4 1.3 2.8 2.3 4.3 2.9l.3.1.1-.1h.3l.2-.1a96.8 96.8 0 0 0 13.2-17.5c2.7-4.7 5.9-11.6 1.5-15.6zm386 41-.4.5c-1.9 2-7 7.3-4.6 9.7.4.4.9.6 1.5.6 1.5 0 3.4-1 5.1-2.2V82.7l-1.6 1.6zM2.8 11.4 4.2 10 2.4 8.2A26.5 26.5 0 0 0 0 10v4.2l2.8-2.8zm3.5 5.2 2.2-2.3-.6-.6-.7-.7-.6-.6-2.3 2.2-4.2 3.9v5c1.2-1.6 3.6-4.2 6.2-6.9zm4.6 0L9.5 18c-6 6-8.5 8.3-9.2 8.4h.1-.3v5.5l1.6-1.2a42 42 0 0 0 7.4-7.8l1.7-2 .8-.9 1.1-1.5-1.8-1.9zm413.5 9.3c-.2-.3-.3-.6-.1-1a4 4 0 0 1 1-1.4v-5c-2 1.8-3.6 3.1-4.1 3.3l-.3.1c-.3 0-.7-.2-.9-.4-.2-.3-.3-.6-.2-.9.1-.6 1.6-2.4 5.5-6.3V10l-.1.1-2 1.7a45 45 0 0 0-7.7 7.4c-1.9 2.6-3.9 5.6-3 8.9l.9 1.8.2.2-.2.2c-6.2 5.3-8.8 7.6-10.7 9.4l-4.9 4.2c-3.3 2.7-4.3 3.5-7.3 6.4-5.1 4.9-6.9 8.5-5.2 10.8.6.4 1.2.6 1.9.6 2.2 0 5.1-1.9 8.9-5.9 2.9-3.1 3.7-4 6.4-7.3l4.2-4.9 9.4-10.8.2-.2.2.2 1.8.9 1.8.3c1.9 0 3.8-.9 5.5-2.1v-5.5c-.7 0-1-.2-1.2-.5zm-28.2 103.7c-3.5 0-7.3-4.1-8.6-5.5-2.9-3.1-3.6-4-6.3-7.4l-3.8-4.7-9.4-11.4-.2-.2-.2.2c-.5.3-1.9.9-2.9 1l-1 .1c-4.1 0-9.6-3.5-12.7-8.1-2.4-3.6-3.1-7.3-1.9-10.3.4-1 1-1.9 1.6-2.6.7-.7 1.6-1.2 2.6-1.6 1-.4 2-.6 3.1-.6 3.7 0 7.9 2.3 11.2 6.1 2.9 3.4 4.4 7.2 4 10.1a7 7 0 0 1-1 2.9l-.2.2.2.2 11.4 9.4 4.7 3.8c3.4 2.7 4.3 3.5 7.4 6.3 5.2 4.8 6.7 8.5 4.5 11.2-.7.6-1.6.9-2.5.9zm17.3-16.6c-2.7 0-6.5-3.7-8.2-5.2l-.5-.4c-3.9-3.6-6.6-6.7-10.1-10.7-8-9.1-16.9-16.2-26.3-23.8l-4.7-3.8V69c-.1-.1-.1-.5.2-.8a6.6 6.6 0 0 1 5.2-2.2c3.6 0 7.7 2.1 10.5 3.7a95.7 95.7 0 0 1 17.5 13.2c.1.1.1.3 0 .4v.1l.1.1-.1.4c-.7 1.4-1.6 2.8-2.9 4.3l-.2.2.2.2c2.7 2.6 5.3 4.6 7.9 6.6 2.8 2.1 5.7 4.4 8.6 7.3 1.8 1.8 5.1 5.8 5.1 8.5a2 2 0 0 1-.6 1.5c-.6.3-1.1.5-1.7.5zm-33.8 33.6c-2.2 0-5.1-1.9-8.9-5.9-2.9-3-3.7-4-6.4-7.3l-4.2-4.9-9.4-10.8-.2-.2-.2.2-1.8.9-1.8.3c-2.5 0-4.9-1.5-7.1-3.2-2.9-2.2-5.2-5-7.4-7.7l-1.7-2.1-.8-.9-1.1-1.5 1.8-1.8 1.4 1.4c6.2 6.2 8.6 8.4 9.2 8.4h.2c.4 0 .7-.2.9-.5.2-.3.3-.6.1-1-.3-.9-3.6-4.4-7.2-8.3l-2.2-2.3.6-.6.6-.6.6-.6 2.3 2.2a79 79 0 0 0 8.3 7.2l.3.1c.3 0 .7-.2.9-.4.2-.3.3-.6.2-.9-.1-.7-2.3-3.1-8.3-9.2l-1.4-1.4 1.8-1.8 1.5 1.1.9.8 2 1.7a45 45 0 0 1 7.7 7.4c1.9 2.6 3.9 5.6 3 8.9a15 15 0 0 1-.9 1.8l-.2.2.2.2c6.2 5.3 8.8 7.6 10.7 9.4l4.9 4.2c3.3 2.7 4.3 3.5 7.3 6.4 5.1 4.9 6.9 8.5 5.2 10.8 0 .1-.7.3-1.4.3zm-81.1 38.7c-1 0-1.8-.3-2.6-.9-2.1-2.7-.6-6.3 4.6-11.2 3.1-2.9 4-3.6 7.4-6.3l4.7-3.8 11.4-9.4.2-.2-.2-.2c-.3-.5-.9-1.9-1-2.9-.4-2.9 1.1-6.7 4-10.1 3.3-3.8 7.5-6.1 11.2-6.1 1.1 0 2.2.2 3.1.6 1 .4 1.9 1 2.6 1.6.7.7 1.2 1.6 1.6 2.6 1.2 3.1.5 6.7-1.9 10.3-3.1 4.6-8.6 8.1-12.7 8.1l-1-.1a7 7 0 0 1-2.9-1l-.2-.2-.2.2-9.4 11.4-3.8 4.7c-2.7 3.4-3.5 4.3-6.3 7.4-3.4 3.7-6.2 5.5-8.6 5.5zm15.2 15.9c-.6 0-1.2-.2-1.5-.6-2.3-2.4 2.7-7.7 4.6-9.7l.4-.5c3.6-3.9 6.7-6.6 10.7-10.1 9.1-8 16.2-16.9 23.8-26.3l3.8-4.7h.3l.6.2c4.4 4 1.3 10.9-1.5 15.7a95.7 95.7 0 0 1-13.2 17.5l-.2.1h-.3l-.1.1-.3-.1c-1.4-.7-2.8-1.6-4.3-2.9l-.2-.2-.2.2c-2.6 2.7-4.6 5.3-6.6 7.9a77.8 77.8 0 0 1-7.3 8.6c-1.8 1.5-5.8 4.8-8.5 4.8zm-33.1-33.4a3 3 0 0 1-1.9-.6c-1.7-2.3.1-5.9 5.2-10.8 3.1-2.9 4-3.7 7.3-6.4l4.9-4.2a918 918 0 0 1 10.7-9.4l.2-.2-.1-.2-.9-1.8c-1-3.3 1-6.3 3-8.9 2.2-2.9 5-5.2 7.7-7.4l2-1.7.9-.8 1.5-1.1 1.8 1.8-1.4 1.4a47 47 0 0 0-8.3 9.2c-.1.3 0 .6.2.9.2.3.5.4.9.4l.3-.1c.9-.3 4.4-3.6 8.3-7.3l2.3-2.2.6.6.6.6.6.6-2.2 2.3c-3.7 3.9-7 7.5-7.3 8.4-.1.3-.1.7.2 1 .2.3.6.5.9.5h.2-.1c.8-.1 3.2-2.3 9.2-8.4l1.4-1.4 1.8 1.8-1.1 1.5-.8.9-1.7 2a45 45 0 0 1-7.4 7.7c-2.2 1.7-4.6 3.2-7.1 3.2l-1.8-.3a15 15 0 0 1-1.8-.9l-.2-.2-.2.2-9.4 10.8-4.2 4.9c-2.7 3.3-3.5 4.3-6.4 7.3-3.3 4.4-6.2 6.3-8.4 6.3zM77.2 129.6c-3.5 0-7.3-4.1-8.6-5.5-2.9-3.1-3.6-4-6.3-7.4l-3.8-4.7-9.4-11.4-.2-.2-.2.2c-.5.3-1.9.9-2.9 1l-1 .1c-4.1 0-9.6-3.5-12.7-8.1-2.4-3.6-3.1-7.3-1.9-10.3.4-1 1-1.9 1.6-2.6a8.5 8.5 0 0 1 5.7-2.2c3.7 0 7.9 2.3 11.2 6.1 2.9 3.4 4.4 7.2 4 10.1a7 7 0 0 1-1 2.9l-.2.2.2.2 11.4 9.4 4.7 3.8c3.4 2.7 4.3 3.5 7.4 6.3 5.2 4.8 6.7 8.5 4.5 11.2-.6.6-1.5.9-2.5.9zM94.6 113c-2.7 0-6.5-3.7-8.2-5.2l-.5-.4c-3.9-3.6-6.6-6.7-10.1-10.7-8-9.1-16.9-16.2-26.3-23.8l-4.7-3.8V69c-.1-.1-.1-.5.2-.8a6.6 6.6 0 0 1 5.2-2.2c3.6 0 7.7 2.1 10.5 3.7a95.7 95.7 0 0 1 17.5 13.2c.1.1.1.3 0 .4v.1l.1.1-.1.4c-.7 1.4-1.6 2.8-2.9 4.3l-.2.2.2.2c2.7 2.6 5.3 4.6 7.9 6.6 2.8 2.1 5.7 4.4 8.6 7.3 1.8 1.8 5.1 5.8 5.1 8.5a2 2 0 0 1-.6 1.5c-.6.3-1.1.5-1.7.5zm-33.8 33.6c-2.2 0-5.1-1.9-8.9-5.9-2.9-3-3.7-4-6.4-7.3l-4.2-4.9-9.4-10.8-.2-.2-.2.2-1.8.9-1.8.3c-2.5 0-4.9-1.5-7.1-3.2-2.9-2.2-5.2-5-7.4-7.7l-1.7-2.1-.8-.9-1.1-1.5 1.8-1.8 1.4 1.4c6.2 6.2 8.6 8.4 9.2 8.4h.2c.4 0 .7-.2.9-.5.2-.3.3-.6.2-1-.3-.9-3.6-4.4-7.2-8.3l-2.2-2.3.6-.6.6-.6.6-.6 2.3 2.2a79 79 0 0 0 8.3 7.2l.3.1c.3 0 .7-.2.9-.4.2-.3.3-.6.2-.9-.1-.7-2.3-3.1-8.3-9.2l-1.4-1.4 1.8-1.8 1.5 1.1.9.8 2 1.7a45 45 0 0 1 7.7 7.4c1.9 2.6 3.9 5.6 3 8.9a15 15 0 0 1-.9 1.8l-.2.2.2.2c6.2 5.3 8.8 7.6 10.7 9.4l4.9 4.2c3.3 2.7 4.3 3.5 7.3 6.4 5.1 4.9 6.9 8.5 5.2 10.8-.2.1-.8.3-1.5.3zM418.9 163l-4.7 3.8c-3.4 2.7-4.3 3.5-7.4 6.3-5.2 4.8-6.7 8.5-4.6 11.2.8.6 1.7.9 2.6.9 2.4 0 5.2-1.8 8.6-5.5 2.9-3.1 3.6-4 6.3-7.4l3.8-4.7 1.6-1.9v-8l-6.2 5.3zM26.7 138.9c-.4-1-1-1.9-1.6-2.6a7.6 7.6 0 0 0-2.6-1.6c-1-.4-2-.6-3.1-.6-3.7 0-7.9 2.3-11.2 6.1-2.9 3.4-4.4 7.2-4 10.1a7 7 0 0 0 1 2.9l.2.2-.2.2-5.1 4.2v8l7.8-9.5.2-.2.2.2a7 7 0 0 0 2.9 1l1 .1c4.1 0 9.6-3.5 12.7-8.1 2.4-3.6 3-7.3 1.8-10.4zm396.9 51.6-.4.5c-1.9 2-7 7.3-4.6 9.7.4.4.9.6 1.5.6 1.5 0 3.4-1 5.1-2.2v-10.2l-1.6 1.6zm-386-41-.6-.2h-.3l-3.8 4.7c-7.5 9.4-14.6 18.3-23.8 26.3-3.3 2.9-6.1 5.4-9.1 8.4V199c1.4-1 2.6-2 3.4-2.8 3-2.9 5.2-5.8 7.3-8.6 1.9-2.5 4-5.2 6.6-7.9l.2-.2.2.2c1.4 1.3 2.8 2.3 4.3 2.9l.3.1.1-.1h.3l.2-.1A96.8 96.8 0 0 0 36.1 165c2.7-4.7 5.9-11.5 1.5-15.5zm-34.8-32 1.4-1.4-1.8-1.8-1.5 1.1-.8.7v4.2l2.7-2.8zm3.5 5.3 2.2-2.3-.6-.6-.6-.6-.6-.6-2.3 2.2-4.2 3.9v5c1.1-1.7 3.5-4.3 6.1-7zm4.6 0-1.4 1.4c-6 6-8.5 8.3-9.2 8.4H0v5.5l1.6-1.2c2.9-2.2 5.2-5 7.4-7.7l1.7-2 .8-.9 1.1-1.5c-.3-.5-1.3-1.7-1.7-2zm413.5 9.3c-.2-.3-.3-.6-.1-1a4 4 0 0 1 1-1.4v-5c-2 1.8-3.6 3.1-4.1 3.3l-.3.1c-.3 0-.7-.2-.9-.4-.2-.3-.3-.6-.2-.9.1-.6 1.6-2.4 5.5-6.3v-4.2l-.1.1-2 1.7a45 45 0 0 0-7.7 7.4c-1.9 2.6-3.9 5.6-3 8.9l.9 1.8.2.2-.2.2c-6.2 5.3-8.8 7.6-10.7 9.4l-4.9 4.2c-3.3 2.7-4.3 3.5-7.3 6.4-5.1 4.9-6.9 8.5-5.2 10.8.6.4 1.2.6 1.9.6 2.2 0 5.1-1.9 8.9-5.9 2.9-3.1 3.7-4 6.4-7.3l4.2-4.9 9.4-10.8.2-.2.2.2 1.8.9 1.8.3c1.9 0 3.8-.9 5.5-2.1v-5.5c-.7-.2-1-.3-1.2-.6zM85.9 185.3c-1 0-1.8-.3-2.6-.9-2.1-2.7-.6-6.3 4.6-11.2 3.1-2.9 4-3.6 7.4-6.3l4.7-3.8 11.4-9.4.2-.2-.2-.2a7 7 0 0 1-1-2.9c-.4-2.9 1.1-6.7 4-10.1 3.3-3.8 7.5-6.1 11.2-6.1a8.7 8.7 0 0 1 5.8 2.2c.7.7 1.2 1.6 1.6 2.6 1.2 3.1.5 6.7-1.9 10.3-3.1 4.6-8.6 8.1-12.7 8.1l-1-.1a7 7 0 0 1-2.9-1l-.2-.2-.2.2-9.4 11.4-3.8 4.7c-2.7 3.4-3.5 4.3-6.3 7.4-3.5 3.7-6.3 5.5-8.7 5.5zm15.3 15.9a2 2 0 0 1-1.5-.6c-2.3-2.4 2.7-7.7 4.6-9.7l.4-.5c3.6-3.9 6.7-6.6 10.7-10.1 9.1-8 16.2-16.9 23.8-26.3l3.8-4.7h.3l.6.2c4.4 4 1.3 10.9-1.5 15.7a99.6 99.6 0 0 1-13.1 17.5l-.2.1h-.3l-.1.1-.3-.1c-1.4-.7-2.8-1.6-4.3-2.9l-.2-.2-.2.2c-2.6 2.7-4.6 5.3-6.6 7.9a77.8 77.8 0 0 1-7.3 8.6c-1.9 1.5-6 4.8-8.6 4.8zM68 167.8c-.7 0-1.3-.2-1.9-.6-1.7-2.3.1-5.9 5.2-10.8 3.1-2.9 4-3.7 7.3-6.4l4.9-4.2a918 918 0 0 1 10.7-9.4l.2-.2-.2-.2-.9-1.8c-1-3.3 1-6.3 2.9-8.9 2.2-2.9 5-5.2 7.7-7.4l2-1.7.9-.8 1.5-1.1 1.8 1.8-1.4 1.4a47 47 0 0 0-8.3 9.2c-.1.3 0 .6.2.9.2.3.5.4.9.4l.3-.1c.9-.3 4.4-3.6 8.3-7.3l2.3-2.2.6.6.6.6.6.6-2.2 2.3c-3.7 3.9-7 7.5-7.3 8.4-.1.3-.1.7.2 1 .2.3.6.5.9.5h.2c.8-.1 3.2-2.3 9.2-8.4l1.4-1.4 1.8 1.8-1.1 1.5-.8.9-1.7 2a45 45 0 0 1-7.4 7.7c-2.2 1.7-4.6 3.2-7.1 3.2l-1.8-.3a15 15 0 0 1-1.8-.9l-.2-.2-.2.2-9.4 10.8-4.2 4.9c-2.7 3.3-3.5 4.3-6.4 7.3-3.1 4.4-6 6.3-8.3 6.3zm221.9 68c-3.5 0-7.3-4.1-8.6-5.5-2.9-3.1-3.6-4-6.3-7.4l-3.8-4.7-9.4-11.4-.2-.2-.2.2a7 7 0 0 1-2.9 1l-1 .1c-4.1 0-9.6-3.5-12.7-8.1-2.4-3.6-3.1-7.3-1.9-10.3.4-1 1-1.9 1.6-2.6a8.5 8.5 0 0 1 5.7-2.2c3.7 0 7.9 2.3 11.2 6.1 2.9 3.4 4.4 7.2 4 10.1a7 7 0 0 1-1 2.9l-.2.2.2.2 11.4 9.4 4.7 3.8c3.4 2.7 4.3 3.5 7.4 6.3 5.2 4.8 6.7 8.5 4.5 11.2-.7.6-1.5.9-2.5.9zm17.3-16.6c-2.7 0-6.5-3.7-8.2-5.2l-.5-.4c-3.9-3.6-6.6-6.7-10.1-10.7-8-9.1-16.9-16.2-26.3-23.8l-4.7-3.8v-.1c-.1-.1-.1-.5.2-.8a6.6 6.6 0 0 1 5.2-2.2c3.6 0 7.7 2.1 10.5 3.7a95.7 95.7 0 0 1 17.5 13.2c.1.1.1.3 0 .4v.1l.1.1-.1.4c-.7 1.4-1.6 2.8-2.9 4.3l-.2.2.2.2c2.7 2.6 5.3 4.6 7.9 6.6 2.8 2.2 5.7 4.4 8.6 7.3 1.8 1.8 5.1 5.8 5.1 8.5a2 2 0 0 1-.6 1.5c-.5.3-1 .5-1.7.5zm-33.8 33.6c-2.2 0-5.1-1.9-8.9-5.9-2.9-3-3.7-4-6.4-7.3l-4.2-4.9-9.4-10.8-.2-.2-.2.2-1.8.9-1.8.3c-2.5 0-4.9-1.5-7.1-3.2-2.9-2.2-5.2-5-7.4-7.7l-1.7-2.1-.8-.9-1.1-1.5 1.8-1.8 1.4 1.4c6.2 6.2 8.6 8.4 9.2 8.4h.2c.4 0 .7-.2.9-.5.2-.3.3-.6.1-1-.3-.9-3.6-4.4-7.2-8.3l-2.2-2.3.6-.6.6-.6.6-.6 2.3 2.2a79 79 0 0 0 8.3 7.2l.3.1c.3 0 .7-.2.9-.4.2-.3.3-.6.2-.9-.1-.7-2.3-3.1-8.3-9.2l-1.4-1.4 1.8-1.8 1.5 1.1.9.8 2 1.7a45 45 0 0 1 7.7 7.4c1.9 2.6 3.9 5.6 3 8.9a15 15 0 0 1-.9 1.8l-.2.2.2.2c6.2 5.3 8.8 7.6 10.7 9.4l4.9 4.2c3.3 2.7 4.3 3.5 7.3 6.4 5.1 4.9 6.9 8.5 5.2 10.8 0 0-.7.3-1.4.3zm122.8-17c-3.5 0-7.3-4.1-8.6-5.5-2.9-3.1-3.6-4-6.3-7.4l-3.8-4.7-9.4-11.4-.2-.2-.2.2a7 7 0 0 1-2.9 1l-1 .1c-4.1 0-9.6-3.5-12.7-8.1-2.4-3.6-3.1-7.3-1.9-10.3.4-1 1-1.9 1.6-2.6a8.7 8.7 0 0 1 5.8-2.2c3.7 0 7.9 2.3 11.2 6.1 2.9 3.4 4.4 7.2 4 10.1a7 7 0 0 1-1 2.9l-.2.2.2.2 11.4 9.4 4.7 3.8c3.4 2.7 4.3 3.5 7.4 6.3 5.2 4.8 6.7 8.5 4.5 11.2-.8.6-1.7.9-2.6.9zm17.3-16.6c-2.7 0-6.5-3.7-8.2-5.2l-.5-.4c-3.9-3.6-6.6-6.7-10.1-10.7-8-9.1-16.9-16.2-26.3-23.8l-4.7-3.8v-.1c-.1-.1-.1-.5.2-.8a6.6 6.6 0 0 1 5.2-2.2c3.6 0 7.7 2.1 10.5 3.7a95.7 95.7 0 0 1 17.5 13.2c.1.1.1.3 0 .4v.1l.1.1-.1.4c-.7 1.4-1.6 2.8-2.9 4.3l-.2.2.2.2c2.7 2.6 5.3 4.6 7.9 6.6 2.8 2.1 5.7 4.4 8.6 7.3 1.8 1.8 5.1 5.8 5.1 8.5a2 2 0 0 1-.6 1.5c-.6.3-1.1.5-1.7.5zm-33.8 33.6c-2.2 0-5.1-1.9-8.9-5.9-2.9-3-3.7-4-6.4-7.3l-4.2-4.9-9.4-10.8-.2-.2-.2.2-1.8.9-1.8.3c-2.5 0-4.9-1.5-7.1-3.2-2.9-2.2-5.2-5-7.4-7.7l-1.7-2.1-.8-.9-1.1-1.5 1.8-1.8 1.4 1.4c6.2 6.2 8.6 8.4 9.2 8.4h.2c.4 0 .7-.2.9-.5.2-.3.3-.6.1-1-.3-.9-3.6-4.4-7.2-8.3l-2.2-2.3.6-.6.6-.6.6-.6 2.3 2.2a79 79 0 0 0 8.3 7.2l.3.1c.3 0 .7-.2.9-.4.2-.3.3-.6.2-.9-.1-.7-2.3-3.1-8.3-9.2l-1.4-1.4 1.8-1.8 1.5 1.1.9.8 2 1.7a45 45 0 0 1 7.7 7.4c1.9 2.6 3.9 5.6 3 8.9a15 15 0 0 1-.9 1.8l-.2.2.2.2c6.2 5.3 8.8 7.6 10.7 9.4l4.9 4.2c3.3 2.7 4.3 3.5 7.3 6.4 5.1 4.9 6.9 8.5 5.2 10.8 0 0-.7.3-1.4.3zm-81.1 38.6c-1 0-1.8-.3-2.6-.9-2.1-2.7-.6-6.3 4.6-11.2 3.1-2.9 4-3.6 7.4-6.3l4.7-3.8 11.4-9.4.2-.2-.2-.2c-.3-.5-.9-1.9-1-2.9-.4-2.9 1.1-6.7 4-10.1 3.3-3.8 7.5-6.1 11.2-6.1 1.1 0 2.2.2 3.1.6 1 .4 1.9 1 2.6 1.6.7.7 1.2 1.6 1.6 2.6 1.2 3.1.5 6.7-1.9 10.3-3.1 4.6-8.6 8.1-12.7 8.1l-1-.1a7 7 0 0 1-2.9-1l-.2-.2-.2.2-9.4 11.4-3.8 4.7c-2.7 3.4-3.5 4.3-6.3 7.4-3.4 3.7-6.2 5.5-8.6 5.5zm15.2 16c-.6 0-1.2-.2-1.5-.6-2.3-2.4 2.7-7.7 4.6-9.7l.4-.5c3.6-3.9 6.7-6.6 10.7-10.1 9.1-8 16.2-16.9 23.8-26.3l3.8-4.7h.3l.6.2c4.4 4 1.3 10.9-1.5 15.7a95.7 95.7 0 0 1-13.2 17.5l-.2.1h-.3l-.1.1-.3-.1c-1.4-.7-2.8-1.6-4.3-2.9l-.2-.2-.2.2c-2.6 2.7-4.6 5.3-6.6 7.9a77.8 77.8 0 0 1-7.3 8.6c-1.8 1.5-5.8 4.8-8.5 4.8zM280.7 274a3 3 0 0 1-1.9-.6c-1.7-2.3.1-5.9 5.2-10.8 3.1-2.9 4-3.7 7.3-6.4l4.9-4.2a918 918 0 0 1 10.7-9.4l.2-.2-.2-.2-.9-1.8c-1-3.3 1-6.3 3-8.9 2.2-2.9 5-5.2 7.7-7.4l2-1.7.9-.8 1.5-1.1 1.8 1.8-1.4 1.4a47 47 0 0 0-8.3 9.2c-.1.3 0 .6.2.9.2.3.5.4.9.4l.3-.1c.9-.3 4.4-3.6 8.3-7.3l2.3-2.2.6.6.6.6.6.6-2.2 2.3c-3.7 3.9-7 7.5-7.3 8.4-.1.3-.1.7.2 1 .2.3.6.5.9.5h.2-.1c.8-.1 3.2-2.3 9.2-8.4l1.4-1.4 1.8 1.8-1.1 1.5-.8.9-1.7 2a49.6 49.6 0 0 1-7.4 7.8c-2.2 1.7-4.6 3.2-7.1 3.2l-1.8-.3a15 15 0 0 1-1.8-.9l-.2-.2-.2.2-9.4 10.8-4.2 4.9c-2.7 3.3-3.5 4.3-6.4 7.3-3.2 4.3-6.1 6.2-8.3 6.2zM77.2 235.8c-3.5 0-7.3-4.1-8.6-5.5-2.9-3.1-3.6-4-6.3-7.4l-3.8-4.7-9.4-11.4-.2-.2-.2.2c-.5.3-1.9.9-2.9 1l-1 .1c-4.1 0-9.6-3.5-12.7-8.1-2.4-3.6-3.1-7.3-1.9-10.3.4-1 1-1.9 1.6-2.6a8.7 8.7 0 0 1 5.8-2.2c3.7 0 7.9 2.3 11.2 6.1 2.9 3.4 4.4 7.2 4 10.1a7 7 0 0 1-1 2.9l-.2.2.2.2 11.4 9.4 4.7 3.8c3.4 2.7 4.3 3.5 7.4 6.3 5.2 4.8 6.7 8.5 4.5 11.2a4 4 0 0 1-2.6.9zm17.4-16.6c-2.7 0-6.5-3.7-8.2-5.2l-.5-.4c-3.9-3.6-6.6-6.7-10.1-10.7-8-9.1-16.9-16.2-26.3-23.8l-4.7-3.8v-.1c-.1-.1-.1-.5.2-.8a6.6 6.6 0 0 1 5.2-2.2c3.6 0 7.7 2.1 10.5 3.7a95.7 95.7 0 0 1 17.5 13.2c.1.1.1.3 0 .4v.1l.1.1-.1.4c-.7 1.4-1.6 2.8-2.9 4.3l-.2.2.2.2c2.7 2.6 5.3 4.6 7.9 6.6 2.8 2.2 5.7 4.4 8.6 7.3 1.8 1.8 5.1 5.8 5.1 8.5a2 2 0 0 1-.6 1.5c-.6.3-1.1.5-1.7.5zm-33.8 33.6c-2.2 0-5.1-1.9-8.9-5.9-2.9-3-3.7-4-6.4-7.3l-4.2-4.9-9.4-10.8-.2-.2-.2.2-1.8.9-1.8.3c-2.5 0-4.9-1.5-7.1-3.2-2.9-2.2-5.2-5-7.4-7.7l-1.7-2-.8-.9-1.1-1.5 1.8-1.8 1.4 1.4c6.2 6.2 8.6 8.4 9.2 8.4h.2c.4 0 .7-.2.9-.5.2-.3.3-.6.2-1-.3-.9-3.6-4.4-7.2-8.3l-2.2-2.3.6-.6.6-.6.6-.6 2.3 2.2a79 79 0 0 0 8.3 7.2l.3.1c.3 0 .7-.2.9-.4.2-.3.3-.6.2-.9-.1-.7-2.3-3.1-8.3-9.2l-1.4-1.4 1.8-1.8 1.5 1.1.9.8 2 1.7a45 45 0 0 1 7.7 7.4c2 2.6 3.9 5.6 3 8.9a15 15 0 0 1-.9 1.8l-.2.2.2.2c6.2 5.3 8.8 7.6 10.7 9.4l4.9 4.2c3.3 2.7 4.3 3.5 7.3 6.4 5.1 4.9 6.9 8.5 5.2 10.8-.2-.1-.8.2-1.5.2zm-34.1-7.7c-.4-1-1-1.9-1.6-2.6a7.6 7.6 0 0 0-2.6-1.6c-1-.4-2-.6-3.1-.6-3.7 0-7.9 2.3-11.2 6.1-2.9 3.4-4.4 7.2-4 10.1a7 7 0 0 0 1 2.9l.2.2-.2.2L.1 264v8l7.8-9.5.2-.2.2.2a7 7 0 0 0 2.9 1l1 .1c4.1 0 9.6-3.5 12.7-8.1 2.4-3.7 3-7.4 1.8-10.4zm392.2 24-4.7 3.8c-3.4 2.7-4.3 3.5-7.4 6.3-5.2 4.8-6.7 8.5-4.6 11.2.8.6 1.7.9 2.6.9 2.4 0 5.2-1.8 8.6-5.5 2.9-3.1 3.6-4 6.3-7.4l3.8-4.7 1.6-1.9v-8c-3.3 3-5 4.4-6.2 5.3zm4.7 27.5-.4.5c-1.9 2-7 7.3-4.6 9.7.4.4.9.6 1.5.6 1.5 0 3.4-1 5.1-2.2V295l-1.6 1.6zm-386-41-.6-.2h-.3l-3.8 4.7c-7.5 9.4-14.6 18.3-23.8 26.3-3.4 3.1-6.1 5.5-9.1 8.6v10.2c1.4-1 2.6-2 3.4-2.8 3-2.9 5.2-5.8 7.3-8.6 1.9-2.5 4-5.2 6.6-7.9l.2-.2.2.2c1.4 1.3 2.8 2.3 4.3 2.9l.3.1.1-.1h.3l.2-.1a96.8 96.8 0 0 0 13.2-17.5c2.7-4.7 5.9-11.6 1.5-15.6zM2.8 223.7l1.4-1.4-1.8-1.8-1.5 1.1-.8.7v4.2l2.7-2.8zm3.5 5.2 2.2-2.3-.6-.6-.6-.6-.6-.6-2.3 2.2-4.2 3.9v5c1.1-1.7 3.5-4.2 6.1-7zm4.6.1-1.4 1.4c-6 6-8.5 8.3-9.2 8.4h.1-.3v5.5l1.6-1.2a42 42 0 0 0 7.4-7.8l1.7-2 .8-.9 1.1-1.5-1.8-1.9zm413.5 9.2c-.2-.3-.3-.6-.2-1a4 4 0 0 1 1-1.4v-5c-2 1.8-3.6 3.1-4.1 3.3l-.3.1c-.3 0-.7-.2-.9-.4-.2-.3-.3-.6-.2-.9.1-.6 1.6-2.4 5.5-6.3v-4.2l-.1.1-2 1.7a45 45 0 0 0-7.7 7.4c-1.9 2.6-3.9 5.6-3 8.9l.9 1.8.2.2-.2.2c-6.2 5.3-8.8 7.6-10.7 9.4l-4.9 4.2c-3.3 2.7-4.3 3.5-7.3 6.4-5.1 4.9-6.9 8.5-5.2 10.8.6.4 1.2.6 1.9.6 2.2 0 5.1-1.9 8.9-5.9 2.9-3.1 3.7-4 6.4-7.3l4.2-4.9 9.4-10.8.2-.2.2.2 1.8.9 1.8.3c1.9 0 3.8-.9 5.5-2.1v-5.5c-.6-.1-.9-.3-1.1-.6zm-240.9-2.4c-3.5 0-7.3-4.1-8.6-5.5-2.9-3.1-3.6-4-6.3-7.4l-3.8-4.7-9.4-11.4-.2-.2-.2.2c-.5.3-1.9.9-2.9 1l-1 .1c-4.1 0-9.6-3.5-12.7-8.1-2.4-3.6-3.1-7.3-1.9-10.3.4-1 1-1.9 1.6-2.6.7-.7 1.6-1.2 2.6-1.6 1-.4 2-.6 3.1-.6 3.7 0 7.9 2.3 11.2 6.1 2.9 3.4 4.4 7.2 4 10.1a7 7 0 0 1-1 2.9l-.2.2.2.2 11.4 9.4 4.7 3.8c3.4 2.7 4.4 3.5 7.4 6.3 5.2 4.8 6.7 8.5 4.5 11.2-.7.6-1.5.9-2.5.9zm17.3-16.6c-2.7 0-6.5-3.7-8.2-5.2l-.5-.4c-3.9-3.6-6.6-6.7-10.1-10.7-8-9.1-16.9-16.2-26.3-23.8l-4.7-3.8v-.1c-.1-.1-.1-.5.2-.8a6.6 6.6 0 0 1 5.2-2.2c3.6 0 7.7 2.1 10.5 3.7a95.7 95.7 0 0 1 17.5 13.2c.1.1.1.3 0 .4v.1l.1.1-.1.4c-.7 1.4-1.6 2.8-2.9 4.3l-.2.2.2.2c2.7 2.6 5.3 4.6 7.9 6.6 2.8 2.2 5.7 4.4 8.6 7.3 1.8 1.8 5.1 5.8 5.1 8.5a2 2 0 0 1-.6 1.5c-.5.3-1 .5-1.7.5zM167 252.8c-2.2 0-5.1-1.9-8.9-5.8-2.9-3-3.7-4-6.4-7.3l-4.2-4.9-9.4-10.8-.2-.2-.2.2-1.8.9-1.8.3c-2.5 0-4.9-1.5-7.1-3.2-2.9-2.2-5.2-5-7.4-7.7l-1.7-2-.8-.9c-.5-.5-1-1.3-1.1-1.5l1.8-1.8 1.4 1.4c6.2 6.2 8.6 8.4 9.2 8.4h.2c.4 0 .7-.2.9-.5.2-.3.3-.6.2-1-.3-.9-3.6-4.4-7.2-8.3l-2.2-2.3.6-.6.6-.6.6-.6 2.3 2.2a79 79 0 0 0 8.3 7.2l.3.1c.3 0 .7-.2.9-.4.2-.3.3-.6.2-.9-.1-.7-2.3-3.1-8.3-9.2l-1.4-1.4 1.8-1.8 1.5 1.1.9.8 2 1.7a45 45 0 0 1 7.7 7.4c1.9 2.6 3.9 5.6 3 8.9a15 15 0 0 1-.9 1.8l-.2.2.2.2c6.2 5.3 8.8 7.6 10.7 9.4l4.9 4.2c3.3 2.7 4.3 3.5 7.3 6.4 5.1 4.9 6.9 8.5 5.2 10.8-.1-.2-.7.1-1.5.1zm-81.1 38.6c-1 0-1.8-.3-2.6-.9-2.1-2.7-.6-6.3 4.6-11.2 3.1-2.9 4-3.6 7.4-6.3l4.7-3.8 11.4-9.4.2-.2-.2-.2a7 7 0 0 1-1-2.9c-.4-2.9 1.1-6.7 4-10.1 3.3-3.8 7.5-6.1 11.2-6.1 1.1 0 2.2.2 3.1.6 1 .4 1.9 1 2.6 1.6.7.7 1.2 1.6 1.6 2.6 1.2 3.1.5 6.7-1.9 10.3-3.1 4.6-8.6 8.1-12.7 8.1l-1-.1a7 7 0 0 1-2.9-1l-.2-.2-.2.2-9.4 11.4-3.8 4.7c-2.7 3.4-3.5 4.3-6.3 7.4-3.4 3.7-6.2 5.5-8.6 5.5zm15.3 16a2 2 0 0 1-1.5-.6c-2.3-2.4 2.7-7.7 4.6-9.7l.4-.5c3.6-3.9 6.7-6.6 10.7-10.1 9.1-8 16.2-16.9 23.8-26.3l3.8-4.7h.3l.6.2c4.4 4 1.3 10.9-1.5 15.7a99.6 99.6 0 0 1-13.1 17.5l-.2.1h-.3l-.1.1-.3-.1c-1.4-.7-2.8-1.6-4.3-2.9l-.2-.2-.2.2c-2.6 2.7-4.6 5.3-6.6 7.9a77.8 77.8 0 0 1-7.3 8.6c-1.9 1.5-6 4.8-8.6 4.8zM68 274c-.7 0-1.3-.2-1.9-.6-1.7-2.3.1-5.9 5.2-10.8 3.1-2.9 4-3.7 7.3-6.4l4.9-4.2a918 918 0 0 1 10.7-9.4l.2-.2-.1-.2-.9-1.8c-1-3.3 1-6.3 2.9-8.9a42 42 0 0 1 7.8-7.4l2-1.7.9-.8 1.5-1.1 1.8 1.8-1.4 1.4a47 47 0 0 0-8.3 9.2c-.1.3 0 .6.2.9.2.3.5.4.9.4l.3-.1c.9-.3 4.4-3.6 8.3-7.3l2.3-2.2.6.6.6.6.6.6-2.2 2.3c-3.7 3.9-7 7.5-7.3 8.4-.1.3-.1.7.2 1 .2.3.6.5.9.5h.2c.8-.1 3.2-2.3 9.2-8.4l1.4-1.4 1.8 1.8-1.1 1.5-.8.9-1.7 2a49.6 49.6 0 0 1-7.4 7.8c-2.2 1.7-4.6 3.2-7.1 3.2l-1.8-.3a15 15 0 0 1-1.8-.9l.1.2-.2.2-9.4 10.8-4.2 4.9c-2.7 3.3-3.5 4.3-6.4 7.3-3.6 3.9-6.5 5.8-8.8 5.8zm328.2 68c-3.5 0-7.3-4.1-8.6-5.5-2.9-3.1-3.6-4-6.3-7.4l-3.8-4.7-9.4-11.4-.2-.2-.2.2a7 7 0 0 1-2.9 1l-1 .1c-4.1 0-9.6-3.5-12.7-8.1-2.4-3.6-3.1-7.3-1.9-10.3.4-1 1-1.9 1.6-2.6.7-.7 1.6-1.2 2.6-1.6 1-.4 2-.6 3.1-.6 3.7 0 7.9 2.3 11.2 6.1 2.9 3.4 4.4 7.2 4 10.1a7 7 0 0 1-1 2.9l-.2.2.2.2 11.4 9.4 4.7 3.8c3.4 2.7 4.3 3.5 7.4 6.3 5.2 4.8 6.7 8.5 4.5 11.2-.7.5-1.6.9-2.5.9zm17.3-16.7c-2.7 0-6.5-3.7-8.2-5.2l-.5-.4c-3.9-3.6-6.6-6.7-10.1-10.7-8-9.1-16.9-16.2-26.3-23.8l-4.7-3.8v-.1c-.1-.1-.1-.5.2-.8a6.6 6.6 0 0 1 5.2-2.2c3.6 0 7.7 2.1 10.5 3.7a95.7 95.7 0 0 1 17.5 13.2c.1.1.1.3 0 .4v.1l.1.1-.1.4c-.7 1.4-1.6 2.8-2.9 4.3l-.2.2.2.2c2.7 2.6 5.3 4.6 7.9 6.6 2.8 2.1 5.7 4.4 8.6 7.3 1.8 1.8 5.1 5.8 5.1 8.5a2 2 0 0 1-.6 1.5c-.6.4-1.1.5-1.7.5zm-33.8 33.6c-2.2 0-5.1-1.9-8.9-5.9-2.9-3-3.7-4-6.4-7.3l-4.2-4.9-9.4-10.8-.2-.2-.2.2-1.8.9-1.8.3c-2.5 0-4.9-1.5-7.1-3.2-2.9-2.2-5.2-5-7.4-7.7l-1.7-2.1-.8-.9-1.1-1.5 1.8-1.8 1.4 1.4c6.2 6.2 8.6 8.4 9.2 8.4h.2c.4 0 .7-.2.9-.5.2-.3.3-.6.1-1-.3-.9-3.6-4.4-7.2-8.3l-2.2-2.3.6-.6.6-.6.6-.6 2.3 2.2a79 79 0 0 0 8.3 7.2l.3.1c.3 0 .7-.2.9-.4.2-.3.3-.6.2-.9-.1-.7-2.3-3.1-8.3-9.2l-1.4-1.4 1.8-1.8 1.5 1.1.9.8 2 1.7a45 45 0 0 1 7.7 7.4c1.9 2.6 3.9 5.6 2.9 8.9a15 15 0 0 1-.9 1.8l-.2.2.2.2c6.2 5.3 8.8 7.6 10.7 9.4l4.9 4.2c3.3 2.7 4.3 3.5 7.3 6.4 5.1 4.9 6.9 8.5 5.2 10.8.1.1-.6.3-1.3.3zM77.2 342c-3.5 0-7.3-4.1-8.6-5.5-2.9-3.1-3.6-4-6.3-7.4l-3.8-4.7-9.4-11.4-.2-.2-.2.2a7 7 0 0 1-2.9 1l-1 .1c-4.1 0-9.6-3.5-12.7-8.1-2.4-3.6-3.1-7.3-1.9-10.3.4-1 1-1.9 1.6-2.6a8.7 8.7 0 0 1 5.8-2.2c3.7 0 7.9 2.3 11.2 6.1 2.9 3.4 4.4 7.2 4 10.1a7 7 0 0 1-1 2.9l-.2.2.2.2 11.4 9.4 4.7 3.8c3.4 2.7 4.4 3.5 7.4 6.3 5.2 4.8 6.7 8.5 4.5 11.2-.7.5-1.6.9-2.6.9zm17.4-16.7c-2.7 0-6.5-3.7-8.2-5.2l-.5-.4c-3.9-3.6-6.6-6.7-10.1-10.7-8-9.1-16.9-16.2-26.3-23.8l-4.7-3.8v-.1c-.1-.1-.1-.5.2-.8a6.6 6.6 0 0 1 5.2-2.2c3.6 0 7.7 2.1 10.5 3.7a95.7 95.7 0 0 1 17.5 13.2c.1.1.1.3 0 .4v.1l.1.1-.1.4c-.7 1.4-1.6 2.8-2.9 4.3l-.2.2.2.2c2.7 2.6 5.3 4.6 7.9 6.6 2.8 2.1 5.7 4.4 8.6 7.3 1.8 1.8 5.1 5.8 5.1 8.5a2 2 0 0 1-.6 1.5c-.6.4-1.1.5-1.7.5zm-33.8 33.6c-2.2 0-5.1-1.9-8.9-5.8-2.9-3-3.7-4-6.4-7.3l-4.2-4.9-9.4-10.8-.2-.2-.2.2-1.8.9-1.8.3c-2.5 0-4.9-1.5-7.1-3.2-2.9-2.2-5.2-5-7.4-7.7l-1.7-2.1-.8-.9-1.1-1.5 1.8-1.8 1.4 1.4c6.2 6.2 8.6 8.4 9.2 8.4h.2c.4 0 .7-.2.9-.5.2-.3.3-.6.2-1-.3-.9-3.6-4.4-7.2-8.3l-2.2-2.3.6-.6.6-.6.6-.6 2.3 2.2a79 79 0 0 0 8.3 7.2l.3.1c.3 0 .7-.2.9-.4.2-.3.3-.6.2-.9-.1-.7-2.3-3.1-8.3-9.2l-1.4-1.4 1.8-1.8 1.5 1.1.9.8 2 1.7a45 45 0 0 1 7.7 7.4c1.9 2.6 3.9 5.6 3 8.9a15 15 0 0 1-.9 1.8l-.1.2.2.2c6.2 5.3 8.8 7.6 10.7 9.4l4.9 4.2c3.3 2.7 4.3 3.5 7.3 6.4 5.1 4.9 6.9 8.5 5.2 10.8l-1.6.2zm358.1 16.4-4.7 3.8c-3.4 2.7-4.3 3.5-7.4 6.3-5.2 4.8-6.7 8.5-4.6 11.2.8.6 1.7.9 2.6.9 2.4 0 5.2-1.8 8.6-5.5 2.9-3.1 3.6-4 6.3-7.4l3.8-4.7 1.6-1.9v-8l-6.2 5.3zM26.7 351.2c-.4-1-1-1.9-1.6-2.6a7.6 7.6 0 0 0-2.6-1.6c-1-.4-2-.6-3.1-.6-3.7 0-7.9 2.3-11.2 6.1-2.9 3.4-4.4 7.2-4 10.1a7 7 0 0 0 1 2.9l.2.2-.2.2-5.1 4.2v8l7.8-9.5.2-.2.2.2c.5.3 1.9.9 2.9 1l1 .1c4.1 0 9.6-3.5 12.7-8.1 2.4-3.6 3-7.3 1.8-10.4zm396.9 51.6-.4.5c-1.9 2-7 7.3-4.6 9.7.4.4.9.6 1.5.6 1.5 0 3.4-1 5.1-2.2v-10.2l-1.6 1.6zm-386.1-41-.6-.2h-.3l-3.8 4.7c-7.5 9.4-14.6 18.3-23.8 26.3-3.3 2.9-6.1 5.4-9.1 8.4v10.2c1.4-1 2.6-2 3.4-2.8 3-2.9 5.2-5.8 7.3-8.6 1.9-2.5 4-5.2 6.6-7.9l.2-.2.2.2c1.4 1.3 2.8 2.3 4.3 2.9l.3.1.1-.1h.3l.2-.1A96.8 96.8 0 0 0 36 377.2c2.8-4.6 6-11.4 1.5-15.4zM2.8 329.9l1.4-1.4-1.8-1.8-1.5 1.1-.8.7v4.2l2.7-2.8zm3.5 5.2 2.2-2.3-.6-.6-.6-.6-.6-.6-2.3 2.2-4.2 3.9v5c1.1-1.7 3.5-4.3 6.1-7zm4.6 0-1.4 1.4c-6 6-8.5 8.3-9.2 8.4h.1-.3v5.5l1.6-1.2a42 42 0 0 0 7.4-7.8l1.7-2 .8-.9 1.1-1.5-1.8-1.9zm413.5 9.3c-.2-.3-.3-.6-.2-1a4 4 0 0 1 1-1.4v-5c-2 1.8-3.6 3.1-4.1 3.3l-.3.1c-.3 0-.7-.2-.9-.4-.2-.3-.3-.6-.2-.9.1-.6 1.6-2.4 5.5-6.3v-4.2l-.1.1-2 1.7a45 45 0 0 0-7.7 7.4c-1.9 2.6-3.9 5.6-3 8.9l.9 1.8.2.2-.2.2c-6.2 5.3-8.8 7.6-10.7 9.4l-4.9 4.2c-3.3 2.7-4.3 3.5-7.3 6.4-5.1 4.9-6.9 8.5-5.2 10.8.6.4 1.2.6 1.9.6 2.2 0 5.1-1.9 8.9-5.9 2.9-3.1 3.7-4 6.4-7.3l4.2-4.9 9.4-10.8.2-.2.2.2 1.8.9 1.8.3c1.9 0 3.8-.9 5.5-2.1V345c-.6-.2-.9-.3-1.1-.6z"/>
</svg>