<svg version="1.1"
	xmlns="http://www.w3.org/2000/svg" x="0" y="0" viewBox="0 0 728.6 450" xml:space="preserve">
	<g fill="#1b1a42">
		<path d="M728.6 252.5v8.3c-67.6-3.6-135.2-6.3-202.8-8.4 67.6.8 135.2.9 202.8.1zm0-15.6v8.3c-67.6-.7-135.2-.7-202.8.1 67.6-2.1 135.2-4.9 202.8-8.4zm0 139.7V387l-33.1-13.1a9723.3 9723.3 0 0 0-179.4-68.4 8676.5 8676.5 0 0 0 212.5 71.1zM617.9 450h-9.1a10052 10052 0 0 0-119-96.9c42.4 32.6 85.1 65 128.1 96.9zM410 450h-1.1c-10.9-39.9-21.9-79.7-33-119.5A17844 17844 0 0 0 410 450zm-66.2-29.9L343 450h-.7c.6-10 1.1-19.9 1.5-29.9zm-61.5 8.6-7.4 21.2h-.8l8.2-21.2zm-16.8-77c-25.3 32.6-50.3 65.4-75.2 98.3H186c26.7-32.6 53.2-65.4 79.5-98.3zm-61.6-9.5c-53.1 35.7-106 71.6-158.8 107.8h-6.2l16.7-10.8c49.5-32.1 99-64.5 148.3-97zm73.1-75.1c-92.7 25.4-185 52.2-277 80.3v-10.5l39-9.3a10232 10232 0 0 0 238-60.5zm451.6 66.8v2l-60-14.9c19.9 4.4 39.9 8.7 60 12.9zM692.9 450h-15.1A8905 8905 0 0 0 535 357.8c52.3 31.3 104.9 62 157.9 92.2zm-166.1 0h-2.2l-33.7-41.1c11.9 13.8 23.9 27.5 35.9 41.1zm-91.2 0h-.2l-2.3-5.9 2.5 5.9zm-199-22.2-13.5 22.1h-.4l13.9-22.1zm-51.3-44.1a7791 7791 0 0 0-75.6 66.3H104c27.2-21.9 54.3-44 81.3-66.3zm-34.6-57.5A8306.6 8306.6 0 0 0 0 390.4v-7.6a8786 8786 0 0 0 150.7-56.6zm25.2-67.5C117.3 262.6 58.6 267 0 272v-6.4c58.7-1.7 117.3-4.1 175.9-6.9zm552.7 29.4v8.3c-38.3-6.3-76.7-12.1-115.1-17.6 38.3 3.6 76.6 6.7 115.1 9.3zm0 131v8.7a7390.4 7390.4 0 0 0-137.8-69.3c45.7 20.6 91.6 40.8 137.8 60.6zM569.5 450h-2.7l-22.9-23 25.6 23zm-452.6-79.4A5026.2 5026.2 0 0 0 0 439v-11.2c39.2-18.6 78.2-37.7 116.9-57.2zm-75.1-70.1L0 308.2V307l41.8-6.5zm686.8-196.6v6c-71.7 26.4-143.3 54.1-213.4 79.8a9131.4 9131.4 0 0 0 213.4-85.8zM667.8 0c-60.3 47-119.9 94.9-179.7 142.5A9580.6 9580.6 0 0 0 656.4 0h11.4zm-152 0-20.2 30.7L515 0h.8zm-96.4 0c-10.1 36.8-20.1 73.7-29.9 110.6L418 0h1.4zm-78.3 77.7c-1.6-25.9-3.3-51.8-5.2-77.7h2.1l3.1 77.7zm-61.5-7.6c-9.4-23.4-19-46.8-28.6-70.1h3.3c8.3 23.4 16.7 46.8 25.3 70.1zm-15.8 77.1A9082.7 9082.7 0 0 0 140.1 0h8.2c38.1 49.5 76.5 98.5 115.5 147.2zm-61.4 10.5C135.2 114.8 67.7 72.3 0 30.2v-5.7c67.2 44.8 134.7 89.2 202.4 133.2zm-9.9 52.5c-64-15.6-128.2-30.5-192.5-44.6v-8.7a7938.1 7938.1 0 0 0 192.5 53.3zm536.1-54.6v2l-61.2 14.2 61.2-16.2zm0-149.9v8c-65.7 40.8-131 83.7-195.3 123.5C598.9 94.2 664 50.4 728.6 5.7zM562.3 0a8647.5 8647.5 0 0 0-73.8 86.6c23-28.7 45.8-57.6 68.4-86.6h5.4zM451.4 0 430 52.4A4687 4687 0 0 0 449.5 0h1.9zm-85 0-2.8 38 1.7-38h1.1zm-70.5 44.5L284 0h.7l11.2 44.5zm-62.1 27.1L187.2 0h1.6l45 71.6zm-50.6 44.9A8050.5 8050.5 0 0 0 34.1 0h13.3c44.9 39.3 90.1 78.1 135.8 116.5zm-33.7 58A7808.6 7808.6 0 0 0 0 121v-7.4c49.6 20.8 99.5 41.1 149.5 60.9zm-49.7 64c-33.3-.9-66.5-1.5-99.8-1.9v-4.5c33.3 2.3 66.5 4.4 99.8 6.4zm628.8-43.3v8.5c-38.6 3.2-77.1 7-115.6 11.1a5262 5262 0 0 0 111.2-18.7l4.4-.9zm0-132.6v6.3c-46.6 22.1-93 44.8-139.5 66.7A8814 8814 0 0 0 714.7 70l13.9-7.4zM615.2 0A5959 5959 0 0 0 541 67.8c21.8-22.4 43.4-45 64.8-67.8h9.4zm-383 15.7A775 775 0 0 0 224 0h.7l7.5 15.7zM130.1 29 100.3 0h2.8l27 29zM115 130.7A5244.7 5244.7 0 0 0 0 76.5V65.7c38.1 22.2 76.4 43.9 115 65zm-74 71.2-41-5.7v-1.1l41 6.8zM604.4 0a9190 9190 0 0 0-129.8 127.7c40.9-42.6 82-85 122.8-127.7h7zm-20.5 0a9459.3 9459.3 0 0 0-114.7 122.7C505.1 82.1 540.6 41.2 575.8 0h8.1z"/>
		<path d="M728.6 55.6v7.8L714.7 70c-69.6 33-138.8 66.8-207.6 101.5C580.2 132.8 655 95 728.6 55.6zm0 131.2v8.7l-4.5.6A8997 8997 0 0 0 523.8 223a9427.9 9427.9 0 0 0 204.8-36.2zm0 123.7v2.9c-38.9-7.3-77.9-14.4-116.9-21.3 38.9 6.3 77.9 12.4 116.9 18.4zm0 133.7v5.8h-1.2C628.6 395.2 529.5 341 430 287.5c99.1 52.9 198.7 105.1 298.6 156.7zm-179 5.8H545c-23.9-26.2-48-52.3-72.2-78.2 25.4 26.2 51 52.3 76.8 78.2zm-99.1 0h-1.2l-13-28.5 14.2 28.5zm-71.3 0h-1.5c-2.7-23.4-5.6-46.8-8.5-70.2 3.2 23.4 6.6 46.8 10 70.2zm-60.7-32.7-5.8 32.7h-.4l6.2-32.7zM313.4 312c-24.5 45.8-48.7 91.8-72.5 138h-4a11547 11547 0 0 0 76.5-138zM728.6 0v1.6c-35.6 22.8-71 45.7-106.3 68.9C655.9 47.1 689.4 23.7 722.8 0h5.8zm0 141.9v8.2a8314.1 8314.1 0 0 0-170.3 43 7918 7918 0 0 0 170.3-51.2zm0 122.9v7.1c-54.4-4.5-108.7-8.6-163.2-12.1 54.4 2.2 108.8 3.9 163.2 5zm0 125.5v9.5a8622.7 8622.7 0 0 0-177.3-74.7 7366.3 7366.3 0 0 0 177.3 65.2zM600.3 450h-6c-25.7-22.6-51.5-45-77.4-67.2 27.7 22.5 55.5 45 83.4 67.2zm-120 0h-.4l-14-22.7 14.4 22.7zm-210.8-5.6-2.1 5.6h-.2l2.3-5.6zm-32.4-65.2a9882 9882 0 0 0-57.7 70.8h-3.3c20.4-23.5 40.7-47.1 61-70.8zM658.2 0l-15.7 12.1c-29.8 23-59.3 46.2-88.5 69.8 27.7-24.7 62.2-54.4 92.8-81.9h11.4zm70.4 96.1v7.7c-44.1 16-88.1 32.3-131.9 49 44.1-18.4 88.1-37.3 131.9-56.7zm0 126.8v8.2c-38 .5-75.9 1.3-113.8 2.6 37.9-3.1 75.9-6.7 113.8-10.8zm0 124.4v3.7c-20.9-6.4-41.8-12.6-62.8-18.8 20.9 5.1 41.8 10.2 62.8 15.1zM664.5 450h-8.8a6956 6956 0 0 0-83.7-58.5c30.8 19.7 61.6 39.2 92.5 58.5zM461.1 0a7485 7485 0 0 0-40.5 91.6c12.6-30.4 25-61 37.3-91.6h3.2zm-86.3 0c-2.8 26.1-5.5 52.1-8 78.2 2.1-26 4-52.1 5.8-78.2h2.2zM274.2 126.5C248.8 84.3 223.3 42.1 197.6 0h2.3c24.6 42.3 49.4 84.4 74.3 126.5zm-56.8 11.2A9008.7 9008.7 0 0 0 52.9 0h13.2a9876 9876 0 0 0 151.3 137.7zm-47.6 38.2A6459.1 6459.1 0 0 0 0 110.5V98.9a6482.3 6482.3 0 0 0 169.8 77zm45.4 63.3c-71.7-4.8-143.4-8.7-215.2-11.9v-7.9c71.7 7.5 143.4 14.1 215.2 19.8zm-34.3 51.2C133.5 302.6 86.3 315 39 327.6L0 338v-3.4c60.4-14.4 120.6-29.2 180.9-44.2zm31.6 43.1a8279.6 8279.6 0 0 0-157 105.7L39.9 450H22.1c64-38 127.5-76.8 190.4-116.5zM403.8 0l-9.2 42 7.9-42h1.3zm-77.3 39-4.9-39h1.2l3.7 39zM261 56.9 234.3 0h2.1c8.1 19 16.3 37.9 24.6 56.9zM204.6 94a9919.4 9919.4 0 0 0-89.4-94h6.8c27.3 31.5 54.8 62.9 82.6 94zm-42.1 52.7C108.5 116.7 54.3 87 0 57.6V53c54 31.5 108.2 62.7 162.5 93.7zm-22.9 62.8c-46.5-8.6-93-17.1-139.6-25.3v-2.8c46.5 9.6 93 19 139.6 28.1zm-1.9 67c-46 6.7-91.9 13.8-137.7 21.3v-5.7c45.9-4.8 91.8-10 137.7-15.6zm19.4 64.1C104.4 367.1 52.1 394.3 0 422v-8.7c52.6-23.8 105-48 157.1-72.7zm13 80.1L141.4 450h-2.3l31-29.3zM535.9 0c-9.9 12.7-19.6 25.5-29.3 38.2L532.5 0h3.4zM432.6 0zM193.5 39.3 163.6 0h2.4c9 13.1 18.2 26.2 27.5 39.3zM84.8 62.4A6991.5 6991.5 0 0 0 0 5.1V0h3.4c27 21 54.2 41.8 81.4 62.4zm13.1 110c-32.5-9.5-65.2-18.8-97.9-27.9v-4.9c32.6 11.2 65.2 22.1 97.9 32.8zm-60.4 83.2L0 257.3v-1.8l37.5.1zm64 80.3C67.5 349 33.7 362.5 0 376.3v-8c33.9-10.4 67.8-21.2 101.5-32.4zm1.6 102.8-14 11.3h-.8l14.8-11.3z"/>
	</g>
</svg>